<svg version="1.1" xmlns="http://www.w3.org/2000/svg" xmlns:xlink="http://www.w3.org/1999/xlink" width="121" height="121" viewBox="0,0,121,121"><defs><linearGradient x1="240" y1="124.5" x2="240" y2="235.5" gradientUnits="userSpaceOnUse" id="color-1"><stop offset="0" stop-color="#4a98ff"/><stop offset="1" stop-color="#2311bd"/></linearGradient><linearGradient x1="240" y1="121.5" x2="240" y2="242.5" gradientUnits="userSpaceOnUse" id="color-2"><stop offset="0" stop-color="#2311bd" stop-opacity="0"/><stop offset="1" stop-color="#2311bd" stop-opacity="0"/></linearGradient></defs><g transform="translate(-179.5,-121.5)"><g data-paper-data="{&quot;isPaintingLayer&quot;:true}" fill-rule="nonzero" stroke="none" stroke-width="0" stroke-linecap="butt" stroke-linejoin="miter" stroke-miterlimit="10" stroke-dasharray="" stroke-dashoffset="0" style="mix-blend-mode: normal"><path d="M184.5,180c0,-30.6518 24.8482,-55.5 55.5,-55.5c30.6518,0 55.5,24.8482 55.5,55.5c0,30.6518 -24.8482,55.5 -55.5,55.5c-30.6518,0 -55.5,-24.8482 -55.5,-55.5z" fill="url(#color-1)"/><path d="M179.5,182c0,-33.41322 27.08678,-60.5 60.5,-60.5c33.41322,0 60.5,27.08678 60.5,60.5c0,33.41322 -27.08678,60.5 -60.5,60.5c-33.41322,0 -60.5,-27.08678 -60.5,-60.5z" fill="url(#color-2)"/></g></g></svg>