<svg version="1.1" xmlns="http://www.w3.org/2000/svg" xmlns:xlink="http://www.w3.org/1999/xlink" width="108.11778" height="71.45222" viewBox="0,0,108.11778,71.45222"><g transform="translate(-186.4706,-144.18413)"><g data-paper-data="{&quot;isPaintingLayer&quot;:true}" fill-rule="evenodd" stroke-miterlimit="10" stroke-dasharray="" stroke-dashoffset="0" style="mix-blend-mode: normal"><g><path d="M211.9375,195.7164c0.4287,0.6859 1.4575,2.0577 -1.8863,3.944c-3.3437,1.8862 -9.3453,-0.4287 -10.0312,-0.7717c-3.1723,-1.3718 -6.1731,-3.258 -8.6595,-5.6586c-8.4023,-8.3166 -3.0866,-19.291 0.9431,-19.3767c4.1154,-0.0858 2.2292,7.2877 4.7155,13.6322c1.0289,2.4864 2.7436,4.5441 4.9728,6.0874c2.6579,1.972 9.5169,1.3718 9.9456,2.1434z" fill="#f9a41f" stroke="none" stroke-width="1" stroke-linecap="butt" stroke-linejoin="miter"/><path d="M195.2187,178.6547c0.4286,2.6578 1.286,7.5449 1.286,7.5449c-1.629,-0.6859 -3.3437,-0.8574 -5.0585,-0.5144c-2.4006,0.6001 -2.8293,3.6867 -3.6867,2.2291c-0.7716,-2.4006 -1.0289,-4.9727 -0.6002,-7.4591c0.6002,-3.3438 3.601,-6.859 5.4872,-6.5161c1.972,0.4287 2.2292,1.972 2.5722,4.7156z" fill="#ffffff" stroke="none" stroke-width="1" stroke-linecap="butt" stroke-linejoin="miter"/><path d="M211.9375,195.7164c0.4287,0.6859 1.4575,2.0577 -1.8863,3.944c-3.3437,1.8862 -9.3453,-0.4287 -10.0312,-0.7717c-3.1723,-1.3718 -6.1731,-3.258 -8.6595,-5.6586c-8.4023,-8.3166 -3.0866,-19.291 0.9431,-19.3767c4.1154,-0.0858 2.2292,7.2877 4.7155,13.6322c1.0289,2.4864 2.7436,4.5441 4.9728,6.0874c2.6579,1.972 9.5169,1.3718 9.9456,2.1434z" fill="none" stroke="#231f20" stroke-width="0.85737" stroke-linecap="round" stroke-linejoin="round"/></g><g><path d="M266.3808,204.4617c5.9159,1.8862 16.976,0.7716 21.0057,-0.2572c6.4303,-1.6291 7.8021,8.9167 -1.1146,10.7171c-9.0025,1.8005 -23.4921,-5.4872 -23.4921,-5.4872c-3.6867,-1.7147 -2.4006,-6.859 3.601,-4.9727z" fill="#f9a41f" stroke="none" stroke-width="1" stroke-linecap="butt" stroke-linejoin="miter"/><path d="M266.3808,204.4617c5.9159,1.8862 16.976,0.7716 21.0057,-0.2572c6.4303,-1.6291 7.8021,8.9167 -1.1146,10.7171c-9.0025,1.8005 -23.4921,-5.4872 -23.4921,-5.4872c-3.6867,-1.7147 -2.4006,-6.859 3.601,-4.9727z" fill="none" stroke="#231f20" stroke-width="0.85737" stroke-linecap="round" stroke-linejoin="round"/></g><g><path d="M220.8542,194.3921c-1.2861,-1.7147 -2.7436,-3.1722 -4.4584,-4.3726c-0.7716,-3.0865 -0.8574,-6.2588 -0.1715,-9.3454c2.6579,2.8294 4.9728,5.9159 6.9448,9.3454c1.7147,2.5722 0.1715,7.4592 -2.3149,4.3726z" fill="#231f20" stroke="#231f20" stroke-width="0.85737" stroke-linecap="round" stroke-linejoin="round" opacity="0.1"/><path d="M220.8542,194.2589c-7.202,-9.1739 -12.6034,-5.3157 -16.7188,-9.5169c-3.3438,-3.3437 -1.2861,-10.7171 7.2876,-7.5449c5.9159,2.2292 11.6603,12.6892 11.6603,12.6892c1.8005,2.7436 0.2573,7.5449 -2.2291,4.3726z" fill="#f9a41f" stroke="none" stroke-width="1" stroke-linecap="butt" stroke-linejoin="miter"/><path d="M220.8542,194.2589c-7.202,-9.1739 -12.6034,-5.3157 -16.7188,-9.5169c-3.3438,-3.3437 -1.2861,-10.7171 7.2876,-7.5449c5.9159,2.2292 11.6603,12.6892 11.6603,12.6892c1.8005,2.7436 0.2573,7.5449 -2.2291,4.3726z" fill="none" stroke="#231f20" stroke-width="0.85737" stroke-linecap="round" stroke-linejoin="round"/></g><g><path d="M238.0017,207.291c0,0 -9.7741,4.2869 -26.6644,4.7156c-16.4616,0.4287 -24.6067,-3.0008 -23.4921,-7.8021c1.2861,-5.8302 6.6018,-3.3438 10.1171,-2.6579c3.258,0.4287 6.6017,0 9.6883,-1.3718l-0.0857,-4.4584c0.0857,-0.0857 31.4656,-4.6298 30.4368,11.5746z" fill="#f9a41f" stroke="none" stroke-width="1" stroke-linecap="butt" stroke-linejoin="miter"/><path d="M233.2861,204.4617c-0.6859,1.629 -11.6603,4.7155 -18.0049,3.6867c-2.7436,-0.4287 -4.9727,-2.7436 -2.5721,-5.1443c3.601,-3.6867 15.6042,-3.258 15.6042,-3.258z" fill="#ffffff" stroke="none" stroke-width="1" stroke-linecap="butt" stroke-linejoin="miter"/><path d="M238.0017,207.291c0,0 -9.7741,4.2869 -26.6644,4.7156c-16.4616,0.4287 -24.6067,-2.1435 -23.4921,-7.8021c1.1146,-5.9159 6.6018,-3.2581 10.1171,-2.6579c3.0865,0.4287 6.1731,0.6859 9.2596,0.6859l0.343,-6.5161c0.0857,-0.0857 31.4656,-4.6298 30.4368,11.5746z" fill="none" stroke="#231f20" stroke-width="0.85737" stroke-linecap="round" stroke-linejoin="round"/></g><g><g><path d="M260.2934,158.75941l10.3743,-7.0304l0.3429,12.6891c3.1723,2.7436 5.5729,6.2589 6.859,10.2885c2.1434,6.6875 0.6859,11.4888 0.6859,11.4888c0,0 5.5729,1.8005 4.9728,9.5169c-1.1146,14.7469 -20.0626,20.92 -41.5827,14.6611c-16.2044,-4.7155 -26.8358,-17.8334 -23.5778,-30.7797c2.9151,-11.6603 9.4311,-14.7469 9.4311,-14.7469l1.972,-20.234l12.1747,12.5176c3.0865,-0.7716 6.3446,-1.0288 9.5169,-0.6001c3.0008,0.4287 5.9158,1.2003 8.8309,2.2291z" fill="#f9a41f" stroke="none" stroke-width="1" stroke-linecap="butt" stroke-linejoin="miter"/><path d="M278.5555,186.19541c3.258,1.2861 4.9728,3.2581 4.9728,9.5169c0.0857,8.3165 -11.6603,23.0634 -41.5827,14.6611c-10.2028,-2.8293 -20.4055,-9.7741 -14.061,-22.8062c5.8302,-12.0032 23.4064,-0.0857 31.38,0c7.8878,0 11.746,-4.3726 19.2909,-1.3718z" fill="#ffffff" stroke="none" stroke-width="1" stroke-linecap="butt" stroke-linejoin="miter"/><g fill="none" stroke="#231f20" stroke-width="0.85737" stroke-linecap="round" stroke-linejoin="round"><path d="M260.2934,158.75941l10.3743,-7.0304l0.3429,12.6891c3.1723,2.7436 5.5729,6.2589 6.859,10.2885c2.1434,6.6875 0.6859,11.4888 0.6859,11.4888c0,0 5.5729,1.8005 4.9728,9.5169c-1.1146,14.7469 -20.0626,20.92 -41.5827,14.6611c-16.2044,-4.7155 -26.8358,-17.8334 -23.5778,-30.7797c2.9151,-11.6603 9.4311,-14.7469 9.4311,-14.7469l1.972,-20.234l12.1747,12.5176c3.0865,-0.7716 6.3446,-1.0288 9.5169,-0.6001c3.0008,0.4287 5.9158,1.2003 8.8309,2.2291z"/></g></g><path d="M241.9456,157.13041l1.1146,1.2004" fill="none" stroke="#231f20" stroke-width="0.85737" stroke-linecap="round" stroke-linejoin="round"/></g><g fill="none" stroke="#231f20" stroke-width="0.85737" stroke-linecap="round" stroke-linejoin="round"><path d="M219.9111,185.304c0,0 -3.8582,-0.343 -5.8302,-0.6859c-2.0577,-0.4287 -4.1154,-0.9431 -6.1731,-1.629"/><path d="M209.2796,172.4433c2.2292,1.1146 4.2869,2.4007 6.1731,3.8582c1.972,1.4576 3.8582,3.1723 5.5729,4.9728"/></g><g><path d="M278.05756,174.27791c2.0577,5.3158 0.9431,10.7172 -2.3149,12.0033c-3.3437,1.286 -7.6306,-2.0577 -9.6883,-7.3734c-2.0577,-5.3158 -0.9431,-10.7172 2.3149,-12.0033c3.258,-1.3718 7.6306,2.0577 9.6883,7.3734z" fill="#ffffff" stroke="#231f20" stroke-width="0.85737" stroke-linecap="round" stroke-linejoin="round"/><path d="M276.34286,177.19301c0,1.0289 -0.9431,1.8862 -1.972,1.8862c-1.0288,0 -1.8862,-0.9431 -1.8862,-1.9719c0,-1.0289 0.7716,-1.8005 1.8005,-1.8863c1.1146,0 2.0577,0.9432 2.0577,1.972v0" fill="#231f20" stroke="none" stroke-width="1" stroke-linecap="butt" stroke-linejoin="miter"/></g><g><path d="M241.97763,172.8245c2.0577,5.3158 0.5145,10.8887 -3.4295,12.3462c-3.9439,1.4576 -8.8309,-1.629 -10.8029,-6.9447c-2.0577,-5.4015 -0.5144,-10.8887 3.4295,-12.3462c3.9439,-1.4575 8.831,1.629 10.8029,6.9447z" fill="#ffffff" stroke="#231f20" stroke-width="0.85737" stroke-linecap="round" stroke-linejoin="round"/><path d="M240.00573,175.9968c-0.343,1.0289 -1.3718,1.629 -2.4007,1.2861c-1.0288,-0.343 -1.629,-1.3718 -1.286,-2.4007c0.2572,-0.9431 1.286,-1.5432 2.2291,-1.286c1.1146,0.1714 1.8005,1.286 1.4576,2.4006v0" fill="#231f20" stroke="none" stroke-width="1" stroke-linecap="butt" stroke-linejoin="miter"/></g><g stroke="#231f20" stroke-width="0.85737" stroke-linecap="round" stroke-linejoin="round"><path d="M258.9216,194.64843c1.8005,0.1636 5.1443,-0.1636 4.9728,1.88115c-0.1715,0.89965 -2.6579,3.92581 -4.7156,3.59861c-2.0577,-0.3271 -5.4014,-3.27151 -4.887,-4.82546c0.5144,-1.55395 3.0008,-0.8179 4.6298,-0.6543z" fill="#231f20"/><path d="M265.3519,205.77155c-0.2572,2.04475 -14.4039,0.9815 -13.8894,-1.63571" fill="none"/></g><g><path d="M214.1666,198.1646c-0.6859,3.0865 -4.8013,5.3157 -9.0881,4.9728c-4.2869,-0.343 -7.1162,-3.0866 -6.3446,-6.1731c0.7716,-3.0866 4.8013,-5.3158 9.0882,-5.0585c4.2868,0.3429 7.1162,3.1722 6.3445,6.2588z" fill="#f9a41f" stroke="none" stroke-width="1" stroke-linecap="butt" stroke-linejoin="miter"/><path d="M214.1666,198.1646c-0.6859,3.0865 -4.8013,5.3157 -9.0881,4.9728c-4.2869,-0.343 -7.1162,-3.0866 -6.3446,-6.1731c0.7716,-3.0866 4.8013,-5.3158 9.0882,-5.0585c4.2868,0.3429 7.1162,3.1722 6.3445,6.2588z" fill="none" stroke="#231f20" stroke-width="0.85737" stroke-linecap="round" stroke-linejoin="round"/></g><g fill="none" stroke="#231f20" stroke-width="0.85737" stroke-linecap="round" stroke-linejoin="round"><path d="M294.1597,191.0484c-1.629,0.8574 -3.4295,1.3718 -5.3157,1.629c-2.5721,0.1715 -5.0585,0.2572 -7.5449,0.0857"/><path d="M290.9017,201.0797c-1.629,-0.0858 -3.258,-0.343 -4.887,-0.6859c-2.0577,-0.5145 -3.944,-1.2004 -5.7444,-2.1435"/></g></g></g></svg>