<svg version="1.1" xmlns="http://www.w3.org/2000/svg" xmlns:xlink="http://www.w3.org/1999/xlink" width="130.83781" height="121.2338" viewBox="0,0,130.83781,121.2338"><g transform="translate(-175.3077,-120.1722)"><g data-paper-data="{&quot;isPaintingLayer&quot;:true}" fill-rule="nonzero" stroke-linejoin="miter" stroke-miterlimit="10" stroke-dasharray="" stroke-dashoffset="0" style="mix-blend-mode: normal"><path d="M236.1435,177.9314c-0.6485,-7.3753 3.3438,-11.113 6.9583,-17.6866c-5.067,0.4412 -8.9464,3.2563 -13.0066,1.0021c5.0543,-1.7105 9.877,-2.89 14.4464,-5.6682c-1.5527,-1.6253 -3.9117,-1.5677 -6.0645,-2.2288c-4.1063,-1.2717 -7.0228,-4.2158 -7.7231,-8.458l14.8703,6.4469c-0.577,-4.8885 -3.1042,-10.013 -1.6598,-15.5511c1.0528,-4.0349 1.3903,-6.5425 3.6951,-10.1017c1.0655,-1.6575 1.6034,-3.725 3.6111,-3.5741c0.4665,5.3042 10.9724,29.4895 7.3349,34.3042c-4.3977,5.8272 -15.0339,20.7378 -18.6956,21.187c-1.457,0.1601 -2.4615,-0.4688 -3.7665,0.3283z" fill="#efcf38" stroke="none" stroke-width="1.15184" stroke-linecap="butt"/><path d="M241.3971,175.1278c-3.254,0.0668 -4.7076,-1.0563 -7.5101,-2.0192c0.1221,-1.9662 -1.4248,-4.3759 -2.9464,-6.7187c-0.7233,-1.1438 -4.4277,-1.9616 -4.8665,-3.2275c-0.5587,-1.5158 0.9065,-2.3601 1.3603,-3.9001c1.1231,-3.618 1.8499,-5.7673 1.6506,-9.5315c-0.1693,-3.049 -3.5626,-7.0228 -0.6404,-8.0284c3.2424,-1.0977 4.5141,-1.8936 7.3176,-3.8967c6.0956,-4.3781 8.2173,-7.821 12.3444,-13.0054c-0.2511,2.3682 -1.5896,8.7436 -1.3327,11.6555c0.5218,5.9527 2.4361,9.1111 4.8147,14.5754c0.986,2.2933 5.4597,4.0303 3.6099,5.7235c-2.2116,2.0181 -4.498,2.3924 -7.0459,3.9497c-4.6592,2.8497 -7.4559,7.7991 -6.7555,14.4234z" fill="#769100" stroke="none" stroke-width="1.15184" stroke-linecap="butt"/><path d="M242.1031,173.6684c-0.797,0.6681 -1.4755,-0.3237 -2.2403,-0.3018c1.3534,-9.1283 7.6102,-14.1723 14.8945,-17.5598c-5.5047,-5.2455 -9.8206,-18.6691 -7.8844,-27.5199c-4.2837,8.6446 -2.435,17.098 1.5999,25.3648c-5.5196,-2.2392 -12.0886,-5.9021 -17.6462,-8.8543c0.948,5.5565 11.5991,9.2908 16.2905,10.119c0.3041,1.0205 -11.47,4.9598 -16.4138,6.3328c3.1964,1.494 13.5607,-3.042 15.2539,-3.467c-5.0151,5.4563 -7.7991,13.207 -8.0594,16.818c-0.7096,0.091 -1.2993,-0.3421 -1.8441,-0.7256c0.6139,-3.7884 3.5833,-9.99 6.0471,-13.085c-3.7849,1.6333 -9.5165,2.7195 -13.677,0.7626c3.7009,-1.7831 12.3973,-5.7501 12.5667,-5.9977c-7.3776,-1.699 -10.4404,-4.7064 -11.5,-12.2453c0.8512,-0.1808 13.9649,6.1728 15.7664,7.0079c-4.21,-11.1142 -1.4836,-17.3295 3.3392,-26.823c0.3732,-0.1878 0.7498,0.2591 0.6773,0.5667c-0.4135,1.745 -1.0136,3.3104 -1.2567,5.1222c-1.0067,7.4432 1.1115,15.2873 5.3054,21.4808c0.9848,1.4513 2.3486,2.655 3.3035,4.0487c0.44,0.6416 0.7994,2.1367 0.1382,2.7529c-0.1267,0.1187 -4.7398,1.54 -5.4448,2.0134c-4.931,3.2909 -9.4981,5.8157 -9.2159,14.1896z" fill="#272525" stroke="none" stroke-width="1.15184" stroke-linecap="butt"/><path d="M248.7712,123.4376c0.4066,1.6334 -10.4323,16.8815 -20.375,18.7129c2.9119,9.7987 0.2857,15.778 -1.6782,19.6528c2.8266,2.3624 7.6263,5.333 7.4351,11.3479l-0.5206,0.0461c-1.0816,-6.3605 -7.1541,-8.7632 -9.0501,-10.0591c3.6399,-5.3123 4.3759,-15.7675 1.4721,-21.407c10.3562,-1.7646 21.9945,-18.1772 22.7167,-18.2936z" fill="#272525" stroke="none" stroke-width="1.15184" stroke-linecap="butt"/><path d="M248.8,190.8032c4.0602,-0.5759 6.3892,-1.2232 10.3954,-0.4331c2.0572,0.3974 3.2862,0.9019 5.1602,1.8361c1.8418,0.9168 2.6723,1.6333 4.7295,1.9777c-4.7295,0 -7.4006,-0.0703 -12.1278,0.3594c-2.2369,0.1981 -3.4647,1.0263 -5.7039,0.7878c-1.7312,-0.1797 -1.8038,-2.9475 -2.4534,-4.5279z" fill="#efcf38" stroke="none" stroke-width="1.15184" stroke-linecap="butt"/><path d="M301.7779,179.7294c-2.4166,4.0971 -4.908,6.0023 -9.3829,7.6206c-3.3577,1.2187 -4.7998,2.4074 -8.0871,1.0781c-3.6445,-1.4732 -5.1615,-5.3918 -9.0938,-5.3918c-4.0085,0 -6.8938,1.0782 -10.2515,-1.1495c0,3.0201 1.3005,5.3906 4.0442,6.6139c2.8508,1.2947 5.0139,0.7187 7.6528,2.4442c-3.2447,5.5703 -9.1664,1.6529 -15.5936,1.6529c-2.7426,0 -6.1336,0.4688 -7.3626,2.9487c2.564,0.5011 4.2261,0.5391 6.7878,0.3594c3.1042,-0.2177 5.1268,-0.6485 7.6528,1.0781c2.1309,1.4721 4.2953,3.4867 3.3208,5.894c-0.9733,2.3728 -4.2941,0.5748 -6.6404,-0.5748c0.9376,2.2634 0.9376,4.8136 -1.0125,6.326c-1.912,1.472 -3.8264,-1.365 -5.3422,-3.307c-0.5748,-0.7406 -1.4444,-3.019 -1.4444,-3.019c0,0 -7.3465,-0.8523 -11.8375,-1.1506c0.5805,1.7254 1.9259,2.9671 3.4647,3.3414c1.8292,0.447 3.9451,-0.0679 5.6302,1.2602c1.7324,1.3649 2.8555,2.9452 2.5998,5.1752c-0.2166,1.7969 -2.6712,1.1507 -4.475,1.1507c-0.4676,1.8994 -1.9857,4.2745 -3.755,3.4486c-2.0203,-0.933 -0.9376,-3.4486 -1.5884,-5.6049c-0.6127,-2.0848 -3.2113,-1.366 -5.1971,-2.3013c-1.1898,-0.5414 -1.2993,-2.0837 -2.5985,-2.3003c-1.0102,-0.144 -1.4445,1.0056 -2.4546,1.1496c-4.6926,0.7556 -5.9193,1.3661 -10.3954,2.9475c-2.8589,1.0125 -7.2589,-0.3674 -9.7458,-0.2165c-1.2186,0.0749 -2.1781,1.2866 -3.1042,2.4419c3.0685,0.7568 4.3678,2.7702 7.5077,2.8773c3.2851,0.1071 5.234,-1.9397 8.3739,-1.0056c-0.3605,2.1932 -1.5146,3.2713 -1.4432,5.4632c0.0368,1.4721 1.1553,2.3371 0.7222,3.7378c-0.4688,1.5457 -2.5986,0.8639 -3.8979,1.8706c-1.5872,1.2209 -4.0418,3.3058 -4.0418,3.3058c0,0 -1.6252,-2.0135 -2.5985,-3.3058c-1.3005,-1.7278 -2.7069,-2.2669 -4.7652,-2.8762c-3.5373,-1.0793 -5.8468,1.4007 -8.807,3.5938l12.5608,7.7634c-2.5617,2.8404 -5.6302,7.0447 -5.6302,7.0447c0,0 -7.4351,-0.288 -11.2615,-0.8628c0,-6.7947 -2.0929,-10.9263 -6.6404,-16.1027c-1.6241,-1.8683 -3.6445,-3.4855 -2.7426,-5.75c1.5884,-3.8818 4.5855,-5.4264 4.9092,-9.6318c-3.1756,-0.2488 -4.5475,-0.6473 -7.3626,-2.0848c-0.0795,-0.0415 -0.1451,-0.0795 -0.2223,-0.1209c-0.4561,-0.5437 -0.9652,-0.8893 -1.5216,-0.8893c-0.0092,0 -0.015,0.0092 -0.023,0.0104c-2.4511,-1.5112 -3.7907,-3.0512 -5.5968,-5.9723c-0.106,-0.1682 -0.2039,-0.3329 -0.3064,-0.5011c-0.2177,-0.4411 -0.4492,-0.8466 -0.7038,-1.1737c-3.4797,-5.9608 -4.9771,-11.166 -2.5986,-17.8778c2.8151,-7.9788 7.3995,-10.9621 11.4056,-18.5458c2.4166,-4.5648 2.4523,-8.4465 0.144,-13.0826c-1.1922,-2.4086 -3.2494,-2.9833 -4.1881,-5.4632c2.8162,-0.2154 4.5486,-0.8996 7.2186,-0.144c2.6711,0.7533 3.3922,2.9095 5.4862,4.7433c2.5629,2.2633 3.8621,3.0547 4.5486,6.3973c0.4688,2.4074 0.9019,3.99 0.2166,6.3974c-1.5158,5.1763 -3.2125,7.2969 -5.4862,12.1496c-2.0204,4.3137 1.6978,14.3773 6.4261,13.6586c4.6557,-0.7188 7.8314,-2.2288 11.7649,-4.817c5.1971,-3.4498 7.3638,-6.9722 13.4271,-8.4822c9.7089,-2.4085 15.4842,3.3426 25.4097,1.7254c-2.2369,-4.4933 -2.67,-8.6618 1.1553,-11.5011c3.7895,-2.8036 9.1663,0.9698 10.9701,5.3192c2.0595,-0.5034 3.4314,-0.683 5.4874,-0.2154c0,-2.7322 -0.7234,-4.7802 0.8673,-6.9733c1.4421,-2.0122 3.7885,-2.3002 6.2085,-1.7243c4.7271,1.1496 5.5922,7.7623 3.1745,11.932c2.1297,0 3.9335,1.5458 5.4873,0.144c3.8242,-3.4855 5.7754,-7.2958 10.9714,-7.4755c6.6058,-0.2154 6.9652,10.8193 3.6041,16.5301z" fill="#769100" stroke="none" stroke-width="1.15184" stroke-linecap="butt"/><path d="M281.6114,184.9357c0.9399,0.8432 2.9775,2.4512 3.7654,3.4487c-0.8351,1.0378 -4.832,3.1664 -6.1117,1.8855c-1.2544,-1.252 1.5941,-4.6016 2.3463,-5.3342z" fill="#272525" stroke="none" stroke-width="1.15184" stroke-linecap="butt"/><path d="M280.6277,189.1711c-0.3524,-0.3894 0.7464,-2.1782 1.5112,-2.5272c0.6243,0.47 1.3247,1.2924 1.3247,1.2924c0,0 -2.0734,2.0779 -2.8359,1.2348z" fill="#ffffff" stroke="none" stroke-width="1.15184" stroke-linecap="butt"/><path d="M203.3229,207.7653c-2.996,0.7349 -4.8009,0.2868 -7.8683,0.4308c-0.6151,0.0276 -1.1726,0.1382 -1.7001,0.2868c-0.0173,0.0023 -0.0357,0.0104 -0.0541,0.0127c-0.053,-0.1406 -0.1429,-0.2385 -0.3133,-0.2385c-0.1982,0 -0.4043,0.038 -0.6174,0.1037c0.0541,-0.4158 -0.0357,-0.6796 -0.3433,-0.6796c-0.455,0 -0.956,0.2004 -1.4743,0.5149c0.1866,-0.6566 0.1451,-1.0908 -0.2534,-1.0908c-0.1924,0 -0.3951,0.0426 -0.6013,0.1059c0.0011,-0.3006 -0.1014,-0.4895 -0.3582,-0.4895c-0.2235,0 -0.4596,0.0542 -0.7015,0.1359c-0.6243,-1.2831 -1.4122,-2.1873 -2.3302,-2.1873c-0.1348,0 -0.2407,0.0806 -0.3363,0.1993c-0.4446,-0.5552 -0.9434,-0.91 -1.4894,-0.9469c-0.5667,-1.062 -1.2543,-1.8095 -2.0399,-1.9051c-0.4066,-1.0102 -0.9042,-1.8718 -1.4778,-2.3878c-0.4838,-1.4052 -1.1311,-2.6193 -1.9074,-3.2056c-0.1843,-0.4768 -0.3882,-0.9237 -0.6105,-1.32c3.4912,2.7103 6.0276,5.0336 10.9747,5.4033c3.1584,0.2338 4.8551,1.1139 8.0134,1.2221c1.4974,0.0357 1.8234,1.4755 2.8151,2.5871c1.1196,1.2601 2.564,1.7611 2.6735,3.4486z" fill="#efcf38" stroke="none" stroke-width="1.15184" stroke-linecap="butt"/><path d="M215.9528,209.5645c2.5087,-1.8718 4.6569,-2.3198 6.281,-5.0313c1.3177,-2.2104 1.9501,-4.0245 4.3321,-4.9598c5.287,-2.1044 7.9581,-4.0084 13.4271,-5.6798c1.1391,2.8566 2.6158,3.9175 4.0441,6.5425c-3.3023,2.4603 -4.8723,4.187 -8.4465,6.3973c-2.5628,1.5827 -4.3505,1.7981 -7.2923,2.2289c-4.4219,0.6461 -7.9765,1.5814 -12.3455,0.5022z" fill="#efcf38" stroke="none" stroke-width="1.15184" stroke-linecap="butt"/><path d="M273.9205,182.3833c0.9837,0.1209 3.0144,0.2395 3.9716,0.5286c-0.0668,1.039 -1.6713,4.1928 -3.0697,3.9451c-1.3707,-0.2442 -1.0551,-3.6675 -0.9019,-4.4737z" fill="#272525" stroke="none" stroke-width="1.15184" stroke-linecap="butt"/><path d="M275.2014,185.5393c-0.4043,-0.0933 -0.5045,-1.7312 -0.1716,-2.2968c0.6104,0.0231 1.4317,0.2373 1.4317,0.2373c0,0 -0.3916,2.2599 -1.2601,2.0595z" fill="#ffffff" stroke="none" stroke-width="1.15184" stroke-linecap="butt"/><path d="M271.8253,189.4947c0.3594,-1.0873 1.2198,-3.0708 2.23,-2.822c1.2394,0.3041 1.4916,2.8209 1.1645,3.6974c-0.4411,-0.0541 -2.9453,-0.4745 -3.3945,-0.8754z" fill="#272525" stroke="none" stroke-width="1.15184" stroke-linecap="butt"/><path d="M274.1647,190.0453c0,0 -0.7567,-0.1244 -1.2647,-0.3283c-0.0657,-0.5851 0.6197,-1.8947 0.9837,-1.8233c0.7867,0.1509 0.281,2.1516 0.281,2.1516z" fill="#ffffff" stroke="none" stroke-width="1.15184" stroke-linecap="butt"/><path d="M266.6109,186.3537c0.6013,-0.7211 3.4429,-2.1713 4.3287,-1.2544c0.7222,0.7464 -0.5714,2.4788 -1.3385,3.3334c-0.5736,-0.1843 -2.7206,-1.7243 -2.9902,-2.079z" fill="#272525" stroke="none" stroke-width="1.15184" stroke-linecap="butt"/><path d="M269.9651,185.8595c0.243,0.2788 -0.5517,1.5239 -1.0943,1.76c-0.433,-0.3398 -0.9168,-0.926 -0.9168,-0.926c0,0 1.4836,-1.4387 2.0111,-0.834z" fill="#ffffff" stroke="none" stroke-width="1.15184" stroke-linecap="butt"/><path d="M295.8827,185.5819c0.8939,-0.8904 2.6136,-2.8324 3.6571,-3.5649c0.9964,0.8857 2.9223,4.969 1.5712,6.1773c-1.3212,1.1818 -4.5337,-1.828 -5.2283,-2.6124z" fill="#272525" stroke="none" stroke-width="1.15184" stroke-linecap="butt"/><path d="M300.0789,186.7787c-0.4077,0.3306 -2.1436,-0.8558 -2.4546,-1.6345c0.5045,-0.5955 1.3661,-1.2497 1.3661,-1.2497c0,0 1.9743,2.1723 1.0885,2.8842z" fill="#ffffff" stroke="none" stroke-width="1.15184" stroke-linecap="butt"/><path d="M287.5653,189.4371c1.2094,-0.3685 3.6433,-1.2762 4.9091,-1.4352c0.4619,1.2475 0.2362,5.7547 -1.5239,6.1912c-1.7254,0.4193 -3.1422,-3.7389 -3.3852,-4.756z" fill="#272525" stroke="none" stroke-width="1.15184" stroke-linecap="butt"/><path d="M290.7041,192.4561c-0.5172,0.1014 -1.4905,-1.7554 -1.3972,-2.5893c0.7256,-0.2903 1.7945,-0.4665 1.7945,-0.4665c0,0 0.7234,2.8404 -0.3973,3.0558z" fill="#ffffff" stroke="none" stroke-width="1.15184" stroke-linecap="butt"/><path d="M264.7542,165.0687l-1.2095,-0.0103c-5.3595,-8.3279 -11.8548,-0.1336 -8.1907,8.7448c-0.5886,1.229 -3.0628,1.3246 -4.2849,1.4928c-8.6216,1.1771 -15.8494,-5.0428 -25.4316,-1.9202c-8.4729,2.7622 -13.2554,15.3449 -22.1131,13.5964c-4.0015,-0.7867 -8.011,-4.4358 -8.7275,-8.4776c-1.8602,-10.4875 10.7029,-16.8872 5.4068,-26.6053c-2.518,-4.62 -6.7729,-8.4038 -12.3144,-8.5835c4.3782,2.4373 6.827,8.5824 5.5162,13.4363c-3.1181,11.5449 -16.7375,17.3951 -14.8841,31.2414c1.3603,10.1662 11.9503,18.7774 23.3559,18.9214c-1.8775,-1.3638 -3.9186,-5.4241 -3.3242,-6.4999h0.3732c1.1933,1.8821 5.6302,7.6978 8.2368,6.6657c0.6566,-0.2626 0.7326,-1.0274 1.7681,-1.0677c-0.0472,1.0827 -7.7957,5.5519 -8.1931,11.3042c1.8292,3.148 6.6243,1.7035 9.6387,2.5605c3.9393,1.1219 8.5904,2.4085 10.3873,6.5079c1.5147,-2.0099 3.5154,-4.3678 6.3167,-4.1063c0.0495,-3.4336 -1.297,-3.8633 0.7487,-7.5181c-11.1003,1.6518 -17.0784,-3.7308 -17.0784,-3.7308c3.1664,-0.7545 10.2606,-6.2119 12.3132,-10.5048c3.5546,-7.4317 -5.2317,-9.1376 -10.7628,-8.9568l-0.2661,-0.3732c2.89,-2.6538 12.4203,-0.6922 14.6158,2.6654c4.1973,6.4158 -7.1899,14.6492 -11.6717,17.4343c2.7276,3.2356 15.217,0.5114 16.5981,1.1196c-2.1943,5.8813 -3.1837,3.7274 -2.0883,10.7709c-4.6442,2.5007 -5.2766,2.6009 -7.5492,7.5676l-0.5356,0.106c-1.7692,-4.7825 -4.4565,-8.731 -9.9047,-9.0627c-3.3841,-0.2027 -12.6173,0.6208 -13.5987,-3.7297c-0.7993,-3.5431 3.5961,-7.0976 5.7823,-9.2216c-2.0503,0.4181 -6.4054,0.4711 -10.9517,-0.9284c-0.0542,-0.1302 -0.1429,-0.2235 -0.3076,-0.2235c-0.0852,0 -0.1774,0.03 -0.2661,0.0426c-0.3893,-0.1301 -0.7798,-0.2879 -1.1702,-0.44c-0.0588,-0.1048 -0.144,-0.1785 -0.2903,-0.1785c-0.0403,0 -0.0864,0.0184 -0.1279,0.0207c-0.1854,-0.0772 -0.3662,-0.1762 -0.5517,-0.2568c-0.0599,-0.0876 -0.1451,-0.1475 -0.2787,-0.1475c-0.0093,0 -0.0196,0.0046 -0.0288,0.0046c-0.3272,-0.1497 -0.6566,-0.2856 -0.9791,-0.455c-0.5713,-0.9606 -1.2532,-1.6022 -2.0238,-1.6022c-0.1221,0 -0.2246,0.0645 -0.3144,0.1647c-0.0381,-0.0264 -0.0772,-0.0495 -0.1152,-0.076c-0.2949,-0.3432 -0.6082,-0.6081 -0.9445,-0.7418c-0.1152,-0.0933 -0.2339,-0.1762 -0.3467,-0.2729c-0.1682,-0.144 -0.318,-0.3053 -0.4804,-0.4562c-0.3386,-0.501 -0.7107,-0.8846 -1.1149,-1.0988c-0.326,-0.3479 -0.6474,-0.6969 -0.9549,-1.0563c-0.3191,-0.622 -0.6773,-1.1484 -1.0735,-1.5043c-0.4873,-1.4191 -1.1381,-2.6331 -1.9213,-3.2148c-0.3801,-0.9687 -0.8374,-1.8107 -1.3673,-2.3636c-2.0387,-5.1038 -2.3751,-10.8089 -0.7314,-16.1972c3.1399,-10.2963 18.8787,-18.6956 10.0118,-30.4432c-4.3885,-5.8145 -12.0471,-4.2123 -12.0471,-4.2123c4.0637,-3.4106 10.87,-3.7078 15.7952,-2.2922c4.126,1.1852 8.928,4.9886 10.9218,8.7966c5.9977,11.4551 -8.3819,20.3911 -3.6398,30.4974c0.9814,2.0952 2.1229,3.5442 4.4968,3.9439c8.0456,1.365 12.7359,-12.2717 26.3415,-13.4351c6.5724,-0.5609 18.1324,3.1296 23.0219,2.5594c-3.7319,-13.5203 9.0685,-19.01 12.5091,-8.2z" fill="#272525" stroke="none" stroke-width="1.15184" stroke-linecap="butt"/><path d="M274.3548,157.3042c4.7007,-1.3661 7.8233,2.3923 8.5075,6.1116c-0.6784,-0.0437 -1.3327,-0.0944 -2.0192,-0.2683c-0.3202,-0.6589 -0.6634,-1.3051 -1.2359,-1.9282c-4.2388,-4.6074 -8.9326,-0.751 -6.1889,7.0124c-2.094,-0.4308 -3.9854,-0.0737 -4.9541,-0.0818c-0.5321,-0.3306 -0.6035,-0.1186 -0.531,-1.0125c0.8962,-0.3835 1.8994,-0.3305 2.8393,-0.5333c-0.4618,-3.8368 0.1175,-8.2944 3.5823,-9.2999z" fill="#272525" stroke="none" stroke-width="1.15184" stroke-linecap="butt"/><path d="M266.725,182.8774c1.2048,4.1985 5.1545,6.6646 11.3283,6.918c0.2454,9.2021 -13.1874,2.6527 -17.9918,3.5937c-1.4709,0.2891 -5.9642,1.896 -7.5261,3.0847c-0.7982,0.266 -1.4018,-1.4652 -1.4018,-1.4652c10.9529,-7.6839 19.3314,2.1701 24.5112,-4.3574c-7.7818,0.1589 -13.078,-6.7855 -11.4585,-10.878c7.214,4.7433 10.7628,0.1497 15.7895,2.2392c2.0445,0.85 3.095,5.5841 6.592,5.8651c7.487,0.6036 12.7267,-6.4088 15.7929,-12.4226c1.2325,-2.4166 1.1599,-6.66 -0.5344,-8.8508c-4.2204,-5.4574 -12.3144,0.2765 -14.2426,5.0117l-3.9174,-0.3294c-0.2431,-0.4354 -0.0173,-0.9319 0.2661,-1.2786c0.9237,0.0945 2.1896,0.3087 2.883,0.1751c3.0236,-6.6945 12.7452,-10.8423 17.7407,-4.5912c6.182,7.7392 -6.9421,24.5607 -17.508,24.8452c-4.6984,0.1267 -6.6231,-5.4217 -9.3726,-6.2925c-1.5296,-0.4838 -8.0721,1.1323 -10.9505,-1.267z" fill="#272525" stroke="none" stroke-width="1.15184" stroke-linecap="butt"/><path d="M263.312,191.6072c-5.5541,-0.865 -9.9093,-0.2096 -12.9605,-0.0495c0,-0.7994 -0.8743,-1.1726 -0.0714,-1.5458c2.9453,-0.6393 10.6211,0.1567 13.0319,1.5953z" fill="#272525" stroke="none" stroke-width="1.15184" stroke-linecap="butt"/><path d="M242.1619,193.0217c-4.2215,2.0814 -10.7283,7.3142 -15.8621,7.0516c-0.3708,-0.5875 0.1809,-1.4836 0.4285,-2.0261c3.4463,0.2303 13.487,-5.8813 14.898,-6.038c0.1923,0.3916 0.6508,0.5241 0.5356,1.0125z" fill="#272525" stroke="none" stroke-width="1.15184" stroke-linecap="butt"/><path d="M198.7005,201.0109c0.2845,0.2637 0.713,1.153 0.5771,1.5826c-4.0418,1.4364 -13.9396,-2.5721 -16.8135,-4.7848c4.0326,1.6794 11.9285,3.3634 16.2364,3.2022z" fill="#272525" stroke="none" stroke-width="1.15184" stroke-linecap="butt"/><path d="M245.7107,200.0065c-7.3073,9.0535 -20.1561,10.7801 -29.8293,9.1986l3.1768,-2.0837c14.0053,1.2221 23.1417,-6.9617 25.2461,-8.4476c0.7234,0.0887 1.4064,1.3327 1.4064,1.3327z" fill="#272525" stroke="none" stroke-width="1.15184" stroke-linecap="butt"/><path d="M244.8584,200.3923c1.1195,1.1196 2.0882,2.4131 3.3714,3.36c13.5653,-0.531 9.057,12.9018 5.1407,9.0638c-0.5921,1.3696 -1.0977,3.0409 -2.837,3.1987c-5.1061,0.4642 -2.9821,-4.7041 -4.4047,-7.2382c-5.6256,0.8144 -9.9473,-4.6304 -6.2522,-4.9172c4.5924,5.7834 8.7022,-0.599 8.9222,9.5165c0.0196,0.8881 0.9272,1.4064 1.7347,0.8259c2.3279,-1.6725 -0.3778,-5.0497 -0.9111,-6.8754c2.42,-0.9191 3.7308,3.0202 4.8723,4.1041c0.7291,0.7222 1.3787,0.22 1.2843,-0.9077c-0.1187,-1.4214 -1.4963,-4.0096 -2.6757,-4.6373c-2.1805,-1.1622 -3.7942,0.6738 -6.3179,-1.6541c-0.3456,-0.3156 -4.5648,-4.2468 -1.927,-3.8391z" fill="#272525" stroke="none" stroke-width="1.15184" stroke-linecap="butt"/><path d="M198.1695,207.604c0.3571,6.2119 -6.8212,10.9794 -6.5321,12.4227c4.7272,5.2224 12.2729,9.5165 10.0118,17.9146c2.7276,-0.3824 6.6174,-0.6738 8.8335,1.3868c0.6762,-1.3511 2.2208,-4.2434 5.4079,-6.2361c-4.8469,-2.1205 -9.5326,-4.3931 -13.2243,-8.3186c-0.2142,-0.7844 0.9008,-0.5275 1.2855,-0.9076c2.2219,-0.8513 4.7916,-4.1306 7.1748,-3.1999c0.3029,0.1198 0.7337,0.1175 0.8028,0.5345c0.2304,1.3741 -4.5555,2.7748 -5.2996,3.9462c2.4315,2.4742 9.4359,5.644 12.8488,6.3974c-3.8863,3.3979 -5.5645,7.1817 -6.9076,9.862c-5.9297,-1.8659 -10.7824,-0.5022 -13.1172,0l-0.2672,-0.2649c-0.22,-5.9953 -0.3548,-11.0427 -4.7663,-15.6224c-1.0355,-1.0747 -5.5139,-5.0912 -5.8894,-6.0265c-1.4053,-3.4912 6.1289,-3.9715 6.9606,-11.7292c0.6888,-0.5368 1.6379,-0.1371 2.4096,-0.4227z" fill="#272525" stroke="none" stroke-width="1.15184" stroke-linecap="butt"/><path d="M242.5823,190.8816c0.0012,2.7183 -0.5333,4.218 1.6103,6.5367c5.2685,5.7051 11.5127,2.7632 13.5883,3.7343c2.0111,0.9387 1.2682,7.366 5.1649,7.1598c2.9222,-1.2912 0.9802,-5.3492 -1.5078,-6.9997c2.913,-1.4767 8.3106,5.606 8.2795,0.4423c-0.0116,-1.6714 -1.4733,-3.6594 -3.1331,-4.4058c-5.8341,-2.6205 -17.6382,3.9658 -19.6193,-6.5828c-0.4504,-2.3947 2.1505,-3.0386 2.9533,-1.3212c0.7303,1.5654 0.9019,4.4358 2.5329,5.9366c5.8399,1.426 13.8866,-3.7757 18.9916,2.2818c1.2647,1.4974 1.9939,3.9601 1.1069,5.659c-1.7358,3.315 -6.7843,0.7015 -6.8673,0.7556c0.9434,1.4755 0.8801,4.286 -0.2211,5.2524c-4.6097,4.0453 -7.6264,-2.4292 -8.9694,-6.2867c-5.2628,0.4469 -12.2395,-0.3893 -15.7158,-4.7168c-0.9099,-1.1334 -1.7704,-3.1169 -2.0894,-4.5268c-0.5322,-2.3728 2.0572,-3.8794 3.8955,-2.9187z" fill="#272525" stroke="none" stroke-width="1.15184" stroke-linecap="butt"/><path d="M279.1695,173.8227c-4.0315,-1.6805 -5.1442,-9.3967 -0.6612,-10.5601c3.5085,-0.9122 5.7662,2.905 5.7017,6.5771c-0.0507,2.8784 -3.3323,4.696 -5.0405,3.983z" fill="#272525" stroke="none" stroke-width="1.15184" stroke-linecap="butt"/><path d="M282.0618,170.9685c-0.9146,2.0261 -3.4959,1.7531 -4.6201,-0.8535c-0.7107,-1.6472 -0.6888,-4.4876 1.4156,-5.2041c1.2913,-0.4388 2.5272,0.4043 3.1227,2.1263c0.3766,1.0885 0.6197,2.7426 0.0818,3.9313z" fill="#ffffff" stroke="none" stroke-width="1.15184" stroke-linecap="butt"/><path d="M279.8974,167.4473c0.3606,0 0.6865,0.1463 0.9227,0.3824c0.2361,0.2361 0.3824,0.5621 0.3824,0.9226c0,0.3606 -0.1463,0.6865 -0.3824,0.9227c-0.2362,0.2361 -0.5621,0.3824 -0.9227,0.3824c-0.3605,0 -0.6864,-0.1463 -0.9226,-0.3824c-0.2361,-0.2362 -0.3824,-0.5621 -0.3824,-0.9227c0,-0.3605 0.1463,-0.6865 0.3824,-0.9226c0.2362,-0.2361 0.5621,-0.3824 0.9226,-0.3824z" fill="#272525" stroke="none" stroke-width="1.15184" stroke-linecap="butt"/><path d="M263.2959,176.3844c-4.7179,-1.9673 -6.0207,-10.9943 -0.7729,-12.3581c4.1052,-1.0666 6.7452,3.4014 6.6704,7.6978c-0.0576,3.3668 -3.8979,5.4931 -5.8975,4.6603z" fill="#272525" stroke="none" stroke-width="1.15184" stroke-linecap="butt"/><path d="M267.1604,173.119c-1.0724,2.3705 -4.5706,1.9754 -5.8848,-1.0735c-0.8328,-1.9282 -0.8052,-5.2525 1.6575,-6.0898c1.5112,-0.5138 3.4348,0.5459 4.1328,2.5628c0.4366,1.2739 0.7245,3.2102 0.0945,4.6005z" fill="#ffffff" stroke="none" stroke-width="1.15184" stroke-linecap="butt"/><path d="M264.2692,168.6648c0.4919,0 0.9365,0.1993 1.259,0.5195c0.3225,0.3213 0.5218,0.7648 0.5218,1.2543c0,0.4896 -0.1993,0.933 -0.5218,1.2544c-0.3225,0.3202 -0.7671,0.5195 -1.259,0.5195c-0.4918,0 -0.9364,-0.1993 -1.2589,-0.5195c-0.3226,-0.3214 -0.5218,-0.7648 -0.5218,-1.2544c0,-0.4895 0.1992,-0.933 0.5218,-1.2543c0.3225,-0.3202 0.7671,-0.5195 1.2589,-0.5195z" fill="#272525" stroke="none" stroke-width="1.15184" stroke-linecap="butt"/><path d="M299.3878,168.9792c0.9169,0.2419 1.6368,1.9996 1.7969,3.1031c0.1831,1.2613 -0.197,2.5502 -1.358,2.8105c-1.5435,0.3444 -2.8013,-1.1518 -3.2275,-2.693c-0.5057,-1.8383 0.5632,-3.8057 2.7886,-3.2206z" fill="#272525" stroke="none" stroke-width="1.15184" stroke-linecap="butt"/><path d="M297.6474,172.1261c-0.1786,-0.6439 -0.0069,-1.6011 0.7625,-1.7854c0.7706,-0.1854 1.2486,0.516 1.6275,1.1807c0.7533,1.3315 0.1832,2.5432 -0.6254,2.6216c-0.6024,0.0564 -1.3523,-0.5172 -1.7646,-2.0169z" fill="#a1bf00" stroke="none" stroke-width="1.15184" stroke-linecap="butt"/><path d="M295.2204,179.9241c-1.2739,3.338 -6.668,1.5146 -7.8302,-1.3776c-1.7796,-4.4381 4.8331,-3.7838 6.8604,-2.0653c1.4283,1.2106 1.3131,2.5467 0.9698,3.4429z" fill="#272525" stroke="none" stroke-width="1.15184" stroke-linecap="butt"/><path d="M294.201,178.0972c1.1945,3.0351 -3.4693,3.1653 -4.6649,0.8132c-1.6794,-3.3011 3.869,-2.8427 4.6649,-0.8132z" fill="#a1bf00" stroke="none" stroke-width="1.15184" stroke-linecap="butt"/><path d="M233.5311,183.5627c-3.8644,-7.2358 -1.4191,-12.7647 -0.5943,-21.0165c-4.9702,2.632 -7.7001,7.1702 -12.8143,6.6231c4.407,-3.9209 6.9353,-6.0748 10.3839,-10.8711c-2.2864,-0.9883 -3.9071,0.0322 -6.387,0.288c-4.7352,0.4711 -7.874,-2.3429 -10.4299,-6.3651l16.2721,-0.1475c-1.5435,-6.1842 -5.8341,-8.5536 -6.7671,-14.8184c-0.6808,-4.5648 -1.4272,-7.2636 -0.6232,-11.8813c0.3675,-2.1517 0.0173,-4.4899 2.1309,-5.2017c2.7794,5.2051 23.986,25.3221 22.3723,31.7943c-1.9512,7.8302 -6.3133,27.6039 -9.8471,29.6381c-1.4179,0.7902 -2.7161,0.5805 -3.6963,1.9581z" fill="#efcf38" stroke="none" stroke-width="1.15184" stroke-linecap="butt"/><path d="M237.6651,178.4416c-3.2874,1.4698 -5.2559,0.9515 -8.5283,1.1761c-0.7291,-2.0561 -3.353,-3.8449 -5.9204,-5.5761c-1.2325,-0.8535 -5.363,-0.091 -6.3594,-1.1922c-1.2278,-1.3038 -0.1025,-2.7955 -0.3087,-4.559c-0.4285,-4.1696 -0.6197,-6.6737 -2.458,-10.423c-1.4974,-3.0328 -6.6807,-5.621 -4.1386,-7.9028c2.8278,-2.5156 3.7781,-3.8736 5.7627,-7.123c4.3102,-7.085 4.9737,-11.5081 6.9283,-18.5677c0.7729,2.5202 2.1793,9.5925 3.7032,12.4491c3.1181,5.8387 6.44,8.2322 11.2374,12.7751c2.0008,1.9121 5.9309,2.7621 4.7836,5.2824c-1.381,3.0097 -1.4743,3.6709 -3.3922,6.3558c-3.5108,4.915 -3.7262,11.7869 -1.3096,17.3053z" fill="#769100" stroke="none" stroke-width="1.15184" stroke-linecap="butt"/><path d="M238.5808,177.6976c-0.5218,1.0239 -1.4433,1.0159 -2.2127,1.3672c-2.5847,-9.884 -0.5978,-18.911 5.3526,-25.4995c-7.8866,-2.9729 -16.9528,-15.353 -18.8234,-25.207c-0.6093,10.6534 4.9449,18.4698 12.6461,25.154c-5.4724,1.6748 -14.1032,-0.0968 -21.0477,-0.7096c3.3796,5.2536 15.0765,3.7597 20.2172,2.5836c0.751,0.9088 -9.5326,9.9923 -13.973,13.5204c3.9059,0.1451 12.4952,-8.9406 14.0329,-10.1017c-2.7356,7.7174 -2.2058,16.8146 -0.903,20.6042c-0.6842,0.3974 -1.4732,0.2108 -2.1943,0.0541c-1.0205,-4.1224 -0.6888,-11.72 0.4792,-15.9346c-3.1469,3.2931 -8.5145,6.8696 -13.6045,6.6669c2.9971,-3.4106 10.1328,-11.1994 10.1985,-11.5219c-8.253,1.4456 -12.6795,-0.3006 -17.0335,-7.525c0.7879,-0.5506 15.3011,0.364 17.5023,0.4389c-9.118,-9.5108 -7.434,-17.1038 -6.6427,-28.8537c0.2995,-0.3525 0.8777,-0.0599 0.9376,0.2845c0.3375,1.9558 0.4054,3.8091 0.9433,5.7603c2.2081,8.0169 7.5619,16.7617 14.5259,21.2642c1.6311,1.0563 7.0793,2.8693 6.6715,3.7827c-0.0783,0.1751 -3.0466,3.6767 -3.5626,4.4634c-3.5961,5.4805 -7.434,10.9989 -3.5097,19.4086z" fill="#272525" stroke="none" stroke-width="1.15184" stroke-linecap="butt"/><path d="M222.7291,122.6014c1.1231,1.4893 -3.2977,21.6927 -12.6322,27.8401c7.2232,8.7298 7.1437,15.9519 6.8258,20.747c3.9059,1.1887 10.0867,2.1482 12.5021,8.3578l-0.5103,0.2706c-3.8644,-6.0137 -11.0957,-5.8467 -13.5894,-6.3512c1.4018,-6.9802 -2.3901,-17.9492 -7.7992,-22.4437c9.785,-6.2568 14.5156,-27.9921 15.2032,-28.4206z" fill="#272525" stroke="none" stroke-width="1.15184" stroke-linecap="butt"/><path d="M260.5761,155.02223l9.26548,12.1164" fill="none" stroke="#000000" stroke-width="2.5" stroke-linecap="round"/><path d="M282.6707,150.03312l-8.55275,18.53096" fill="none" stroke="#000000" stroke-width="2.5" stroke-linecap="round"/></g></g></svg>