<svg version="1.1" xmlns="http://www.w3.org/2000/svg" xmlns:xlink="http://www.w3.org/1999/xlink" width="141.68747" height="148.70619" viewBox="0,0,141.68747,148.70619"><g transform="translate(-169.15627,-105.77203)"><g data-paper-data="{&quot;isPaintingLayer&quot;:true}" stroke-miterlimit="10" stroke-dasharray="" stroke-dashoffset="0" style="mix-blend-mode: normal"><g fill-rule="evenodd"><path d="M217.26209,211.06248c1.19591,0.59795 3.7372,1.94335 0.14949,7.02594c-3.58772,5.0826 -13.9024,6.12902 -15.09831,6.12902c-4.63413,0.14949 -10.31468,0.14949 -16.59319,-1.94335c-18.23756,-5.97953 -18.38705,-25.56248 -12.55701,-28.70173c5.68055,-3.13925 8.22185,8.96929 16.4437,16.29421c3.58772,3.28874 7.92287,4.48465 11.51059,5.23209c5.0826,0.89693 14.79933,-4.78362 16.14472,-4.03618z" fill="#ffab19" stroke="#001026" stroke-width="1.2" stroke-linecap="round" stroke-linejoin="round"/><path d="M180.18902,198.95393c2.39181,4.03618 7.02594,9.71673 7.02594,9.71673c0,0 -5.53106,-1.34539 -8.67031,1.19591c-2.5413,1.94335 -1.94335,5.23209 -1.64437,6.2785c-1.94335,-1.94335 -4.33516,-4.63413 -5.83004,-9.86622c-1.49488,-5.23209 0,-11.51059 2.98976,-12.40752c2.98976,-0.59795 3.7372,1.64437 6.12902,5.0826z" fill="#ffffff" stroke="none" stroke-width="1" stroke-linecap="butt" stroke-linejoin="miter"/></g><path d="M224.7365,226.60925c-2.69079,1.79386 -11.95905,8.37134 -23.76862,12.10854l-0.59795,0.14949c-0.59795,0.14949 -0.89693,0.89693 -0.59795,1.49488c2.5413,3.58772 7.17543,10.76315 -1.04642,13.30445c-7.92287,2.5413 -22.7222,-18.53653 -16.4437,-24.0676c2.84028,-2.09283 5.38157,-1.04642 6.72697,-0.44846c0.74744,0.29898 1.49488,0.29898 2.24232,0.14949c1.79386,-0.59795 5.0826,-1.79386 7.6239,-3.13925c6.42799,-3.28874 7.92287,-4.63413 10.91264,-6.87646c2.98976,-2.24232 9.86622,-7.77339 15.39728,-2.98976c4.78362,4.03618 2.09283,8.52083 -0.44846,10.31468z" fill="#ffab19" fill-rule="evenodd" stroke="#001026" stroke-width="1.2" stroke-linecap="round" stroke-linejoin="round"/><path d="M248.50512,195.5157c0.74744,0.59795 9.86622,11.3611 12.85598,8.67031c3.58772,-3.13925 8.52083,-9.26827 13.9024,-4.33516c5.38157,4.93311 -4.78362,13.30445 -9.11878,15.54677c-10.31468,4.63413 -18.68602,-4.18567 -20.47988,-6.57748c-1.79386,-2.39181 -4.93311,-6.42799 -4.93311,-10.31468c0.14949,-4.18567 5.23209,-5.23209 7.77339,-2.98976z" fill="#ffab19" fill-rule="evenodd" stroke="#001026" stroke-width="1.2" stroke-linecap="round" stroke-linejoin="round"/><g fill-rule="evenodd"><path d="M248.65461,230.34645c3.13925,2.84028 10.01571,8.67031 10.01571,8.67031c0,0 21.37681,-3.7372 21.37681,7.02594c0,6.42799 -10.76315,7.92287 -25.2635,6.57748c-0.89693,-0.14949 -1.79386,-0.44846 -2.5413,-1.04642c-3.28874,-2.84028 -12.7065,-11.21161 -18.68602,-17.04165c-8.8198,-8.67031 -16.14472,-14.35087 -16.14472,-14.35087c-12.7065,-12.40752 -2.39181,-17.63961 1.64437,-24.81504c3.7372,-6.12902 5.38157,-4.93311 14.35087,-3.13925c5.0826,0.74744 8.07236,1.19591 11.3611,1.04642c4.93311,-0.14949 4.03618,7.02594 2.69079,10.76315c0,0 -2.09283,5.53106 -4.03618,8.37134c-2.39181,3.43823 -4.18567,5.68055 -5.97953,7.02594z" fill="#ffab19" stroke="#001026" stroke-width="1.2" stroke-linecap="round" stroke-linejoin="round"/><path d="M236.0976,219.28432c0,0 -2.24232,-1.79386 -4.63413,-4.03618c-2.98976,-2.69079 -5.97953,-4.93311 -2.98976,-9.56724c2.69079,-3.58772 5.23209,-8.37134 11.95905,-4.03618c6.42799,4.03618 3.58772,7.77339 3.58772,7.77339c-3.28874,6.72697 -7.92287,9.86622 -7.92287,9.86622z" fill="#ffffff" stroke="none" stroke-width="1" stroke-linecap="butt" stroke-linejoin="miter"/></g><path d="M213.52488,207.02629c3.28874,4.18567 8.37134,9.41776 1.94335,13.75291c-8.8198,4.93311 -16.14472,-10.01571 -17.63961,-15.24779c-1.34539,-4.63413 2.5413,-7.6239 5.83004,-10.1652c6.42799,-4.63413 11.80957,-8.8198 17.78909,-6.57748c7.47441,2.69079 2.09283,8.67031 -1.64437,11.3611c-2.24232,1.64437 -4.48465,3.43823 -6.12902,4.48465c-0.44846,0.74744 -0.59795,1.64437 -0.14949,2.39181z" fill="#ffab19" fill-rule="evenodd" stroke="#001026" stroke-width="1.2" stroke-linecap="round" stroke-linejoin="round"/><g fill-rule="evenodd"><path d="M260.61366,106.27126c0.44846,-0.29898 1.19591,-0.14949 1.34539,0.44846l3.88669,15.99524c0,0 9.56724,7.02594 12.40752,11.95905c4.78362,8.22185 4.93311,14.94882 4.93311,14.94882c0,0 10.61366,3.13925 12.40752,11.66008c1.79386,8.52083 -4.78362,24.66555 -32.8874,30.19661c-28.10378,5.53106 -50.67649,-2.09283 -61.29015,-19.13449c-10.61366,-17.04165 6.12902,-37.37204 5.23209,-36.17614l-3.13925,-26.75838c-0.14949,-0.59795 0.59795,-1.04642 1.19591,-0.74744l18.08807,11.80957c0,0 6.72697,-2.5413 13.75291,-2.84028c4.18567,-0.29898 7.77339,0 11.21161,0.59795z" fill="#ffab19" stroke="#001026" stroke-width="1.2" stroke-linecap="butt" stroke-linejoin="miter"/><path d="M282.73791,150.22079c0,0 10.31468,2.69079 12.10854,11.21161c1.79386,8.52083 -5.38157,23.91811 -33.18638,29.29968c-36.17614,7.47441 -53.36728,-14.05189 -43.35157,-29.89764c10.01571,-15.99524 27.20685,-2.39181 39.76386,-3.28874c10.76315,-0.74744 11.95905,-10.1652 24.66555,-7.32492z" fill="#ffffff" stroke="none" stroke-width="1" stroke-linecap="butt" stroke-linejoin="miter"/><path d="M235.64913,166.21602c0,-0.59795 0.59795,-1.04642 1.19591,-0.89693c2.84028,1.04642 10.91264,3.43823 19.88193,4.03618c8.07236,0.44846 12.85598,0 15.09831,-0.44846c0.74744,-0.14949 1.34539,0.59795 1.04642,1.34539c-1.34539,4.03618 -7.02594,15.24779 -22.7222,14.35087c-13.60342,-1.49488 -14.94882,-11.06213 -14.50035,-18.38705z" fill="#ffffff" stroke="#001026" stroke-width="1.2" stroke-linecap="round" stroke-linejoin="round"/><path d="M310.24373,151.86516c-7.02594,5.68055 -17.78909,5.83004 -17.78909,5.83004" fill="none" stroke="#001026" stroke-width="1.2" stroke-linecap="round" stroke-linejoin="round"/><path d="M308.30039,168.60783c-9.41776,0.74744 -15.24779,-2.09283 -15.24779,-2.09283" fill="none" stroke="#001026" stroke-width="1.2" stroke-linecap="round" stroke-linejoin="round"/><path d="M257.47441,153.65901c3.13925,0 6.42799,0.29898 6.57748,1.34539c0.14949,2.09283 -2.09283,6.2785 -4.48465,6.42799c-2.69079,0.29898 -8.96929,-3.43823 -8.96929,-5.83004c-0.14949,-1.79386 3.88669,-1.94335 6.87646,-1.94335z" fill="#001026" stroke="#001026" stroke-width="1.2" stroke-linecap="round" stroke-linejoin="round"/><path d="M190.20473,151.41669c0,0 12.85598,4.18567 18.08807,8.8198" fill="none" stroke="#001026" stroke-width="1.2" stroke-linecap="round" stroke-linejoin="round"/><path d="M208.74126,165.46858c-6.42799,2.5413 -17.49012,0.89693 -17.49012,0.89693" fill="none" stroke="#001026" stroke-width="1.2" stroke-linecap="round" stroke-linejoin="round"/><g><path d="M275.11401,136.1689c4.33516,6.72697 4.48465,14.35087 0.29898,17.04165c-4.18567,2.69079 -11.06213,-0.44846 -15.54677,-7.17543c-4.33516,-6.72697 -4.48465,-14.35087 -0.29898,-17.04165c4.18567,-2.84028 11.21161,0.44846 15.54677,7.17543z" fill="#ffffff" stroke="#001026" stroke-width="1.2" stroke-linecap="round" stroke-linejoin="round"/><path d="M274.51606,144.68972c0,1.64437 -1.19591,2.98976 -2.69079,2.98976c-1.49488,0 -2.69079,-1.34539 -2.69079,-2.98976c0,-1.64437 1.19591,-2.98976 2.69079,-2.98976c1.49488,0 2.69079,1.34539 2.69079,2.98976" fill="#001026" stroke="none" stroke-width="1" stroke-linecap="butt" stroke-linejoin="miter"/></g><g><path d="M238.04094,140.35457c4.48465,6.57748 4.18567,14.64984 0.14949,17.49012c-4.93311,2.84028 -11.51059,0.74744 -15.99524,-5.83004c-4.63413,-6.57748 -4.93311,-15.09831 -0.29898,-18.38705c4.63413,-3.43823 11.66008,0.14949 16.14472,6.72697z" fill="#ffffff" stroke="#001026" stroke-width="1.2" stroke-linecap="round" stroke-linejoin="round"/><path d="M237.14402,149.02488c0,1.64437 -1.19591,2.98976 -2.69079,2.98976c-1.49488,0 -2.69079,-1.34539 -2.69079,-2.98976c0,-1.64437 1.19591,-2.98976 2.69079,-2.98976c1.49488,0.14949 2.69079,1.34539 2.69079,2.98976" fill="#001026" stroke="none" stroke-width="1" stroke-linecap="butt" stroke-linejoin="miter"/></g></g><path d="M243.95242,144.02512c0,7.9414 -6.69877,14.37918 -14.96212,14.37918c-8.26335,0 -14.96212,-6.43778 -14.96212,-14.37918c0,-7.9414 6.69877,-14.37918 14.96212,-14.37918c8.26335,0 14.96212,6.43778 14.96212,14.37918z" fill="#0b0b0b" fill-rule="nonzero" stroke="#000000" stroke-width="5" stroke-linecap="butt" stroke-linejoin="miter"/><path d="M284.49647,142.50871c0,7.94141 -6.69877,14.37918 -14.96212,14.37918c-8.26335,0 -14.96212,-6.43778 -14.96212,-14.37918c0,-7.94141 6.69877,-14.37918 14.96212,-14.37918c8.26335,0 14.96212,6.43778 14.96212,14.37918z" fill="#0b0b0b" fill-rule="nonzero" stroke="#000000" stroke-width="5" stroke-linecap="butt" stroke-linejoin="miter"/><path d="M245.72963,143.27115h7.70121" fill="none" fill-rule="nonzero" stroke="#000000" stroke-width="5" stroke-linecap="round" stroke-linejoin="miter"/></g></g></svg>