<svg version="1.1" xmlns="http://www.w3.org/2000/svg" xmlns:xlink="http://www.w3.org/1999/xlink" width="572.96055" height="425.77961" viewBox="0,0,572.96055,425.77961"><g transform="translate(46.48028,32.88981)"><g data-paper-data="{&quot;isPaintingLayer&quot;:true}" fill-rule="nonzero" stroke-linecap="butt" stroke-linejoin="miter" stroke-miterlimit="10" stroke-dasharray="" stroke-dashoffset="0" style="mix-blend-mode: normal"><path d="M-45.48028,391.8898v-423.77961h570.96055v423.77961z" fill="#ffffff" stroke="#000000" stroke-width="2"/><text transform="translate(159.8106,131.07901) scale(0.5,0.5)" font-size="40" xml:space="preserve" fill="#000000" fill-rule="nonzero" stroke="none" stroke-width="1" stroke-linecap="butt" stroke-linejoin="miter" stroke-miterlimit="10" stroke-dasharray="" stroke-dashoffset="0" font-family="Sans Serif" font-weight="normal" text-anchor="start" style="mix-blend-mode: normal"><tspan x="0" dy="0">Please Turn On Turbo Mode</tspan><tspan x="0" dy="46.150000000000006px">To Do This, Hold In Shift And </tspan><tspan x="0" dy="46.150000000000006px">Click The Green Flag</tspan></text><g stroke="none" stroke-width="1"><path d="M60.93134,224.65051c1.386,-0.59 2.331,-1.182 3.697,-0.688c1.282,0.468 1.113,3.353 -0.083,4.043c1.049,0.493 1.406,1.946 1.091,3.256c-0.483,1.97 -2.415,2.563 -4.117,2.069c-0.652,2.293 -1.911,3.774 -3.949,4.045c-2.101,0.27 -4.201,-0.665 -4.705,-3.057c-0.399,-1.926 0.987,-2.962 0.924,-4.935c-0.104,-3.205 -1.827,-5.795 -3.78,-8.089c4.243,1.233 8.886,-1.429 10.922,3.356z" fill="#20a6d8"/><path d="M61.03234,223.79451c0.945,-0.816 2.256,-1.363 3.303,-0.896c2.084,0.928 2.699,3.188 1.45,5.752c0.929,2.874 -1.111,6.569 -3.595,5.784c-0.604,1.964 -2.177,3.407 -3.856,3.74c-4.958,0.987 -6.938,-3.61 -5.236,-8.581c-0.289,-0.6 -3.542,-7.219 -3.425,-8.002l1.444,-0.508c0.812,1.186 4.164,8.195 3.35,9.736c-2.195,4.149 2.096,7.818 5.843,4.32c1.529,-1.429 0,-5.424 -0.728,-6.256c1.869,0.047 2.674,2.402 3.101,3.538c1.655,0.123 1.989,-1.583 2.014,-2.501c0.072,-2.645 -2.092,-2.686 -3.665,-2.973c-0.276,-0.562 0.399,-0.552 0.685,-0.66c1.022,-0.387 2.009,0.162 2.98,0.475c1.046,-2.566 -2.426,-3.163 -3.746,-1.271l-1.833,-2.975c-0.028,-0.562 1.201,0.239 1.477,0.156z" fill="#272525"/></g><g stroke="none" stroke-width="1"><path d="M26.59234,193.51351c0,0 3.747,-14.655 19.5,-20.75c15.753,-6.095 23.125,-3.75 31,-1.5c0,0 6.875,-14.125 14.25,-16.125c7.375,-2 12.247,-1.732 17.25,5.5c5.003,7.232 9.5,9.5 9.5,9.5c0,0 9.375,1.375 11.75,2.25c2.375,0.875 10.375,3.125 10.5,12.5c0.125,9.375 -5.875,9.625 -5.875,9.625c0,0 -2.25,6.625 -6.5,5.875c-4.25,-0.75 -11.125,-5.625 -13,-3.5c-1.875,2.125 -2.195,3.388 -1.75,5.125c0.445,1.737 4.189,4.541 1.625,7.375c-2.564,2.834 -12.375,0.75 -14.25,-1.625c-1.875,-2.375 -2.875,-4.75 -2.875,-4.75c0,0 -1.125,4.375 -4.625,7c-3.5,2.625 -17.625,16.25 -39.5,12c-21.875,-4.25 -24.125,-5.375 -24.125,-5.375c0,0 -7.336,-12.284 -2.875,-23.125z" fill="#20a6d8"/><path d="M134.61534,195.67451c-0.658,1.908 -1.632,3.594 -2.941,4.59c-4.571,3.481 -8.934,-0.509 -13.02,-2.279c-2.381,-1.03 -4.37,0.5 -4.771,1.701c-0.454,1.356 0.208,2.828 2.083,5.328c1.874,2.499 -0.714,11.772 -14.152,5.149c-1.798,-0.884 -3.475,-2.723 -4.152,-4.306c-0.894,1.578 -2.049,3.144 -3.334,4.305c-5.851,5.286 -14.695,12.56 -27.945,13.685c-4.509,0.383 -11.668,-0.024 -17.501,-1.614l-0.001,0.007c0,0 -15.621,-1.458 -19.83,-4.802c-0.913,-0.726 -2.034,-2.722 -2.481,-3.835c-1.745,-4.351 -3.574,-9.865 -3.032,-14.812c0.062,-0.566 0.383,-1.785 0.791,-3.037c0,0 0.003,-0.009 0.004,-0.013c0.321,-0.984 0.696,-1.98 1.044,-2.702c1.549,-3.727 4.723,-10.367 8.899,-13.871v0.001c6.448,-6.409 13.674,-10.067 21.776,-11.925c5.904,-1.472 14.1,0.023 18.652,2.466l2.383,0.467c0,0 4.008,-6.194 4.402,-6.941c4.257,-8.64 17.775,-15.489 24.183,-8.175c0.777,0.887 1.443,1.933 1.918,3.084l0.002,-0.001c0,0 7.44,9.571 12.42,11.617c0.166,0.055 0.328,0.114 0.484,0.177c13.679,0.659 18.367,7.147 18.763,7.992c0.636,1.361 1.235,3.112 1.354,3.529c1.405,4.983 0.891,12.825 -5.998,14.215zM138.75334,180.31651c-0.17,-0.538 -0.418,-1.023 -0.682,-1.497c-0.025,-0.045 -0.049,-0.091 -0.076,-0.136c-0.041,-0.072 -0.082,-0.145 -0.123,-0.217c-3.702,-5.805 -18.432,-7.224 -18.432,-7.224l0.002,-0.003c-0.633,-0.009 -1.248,-0.075 -1.717,-0.22l-0.012,0.004c0,0 -0.021,-0.012 -0.027,-0.016c-0.212,-0.069 -0.401,-0.149 -0.523,-0.259c-0.023,-0.022 -7.16,-4.912 -11.127,-11.994c-0.385,-0.504 -0.739,-1.018 -0.971,-1.229c-3.754,-3.395 -7.103,-3.253 -11.525,-2.042c-4.129,1.132 -7.215,3.694 -10.002,7.186l-5.575,9.849l-4.707,-1.275h-0.001c-1.138,-0.28 -2.288,-0.763 -3.414,-0.942c-7.32,-1.709 -14.761,0.427 -21.353,2.849c-5.159,2.1 -9.854,5.224 -14.231,9.267c-0.197,0.274 -6.3,8.841 -8.165,16.36c-0.15,1.166 -0.239,2.35 -0.129,3.573c0.437,4.84 1.905,8.912 3.767,12.729c0.08,0.095 2.462,2.828 12.029,4.1c-1.807,-1.161 -3.369,-2.569 -4.511,-4.298c-0.567,-0.857 -1.645,-2.207 -1.658,-3.321c0.51,-0.125 0.984,0.278 1.335,0.664c6.107,6.717 18.318,11.57 31.292,9.413c-0.012,0.034 13.712,-2.475 24.327,-13.084c0.704,-0.896 1.872,-1.705 2.368,-2.364c1.012,-1.343 1.573,-2.298 2.146,-3.989c0.913,1.391 1.605,2.345 2.55,3.324c1.979,2.065 3.116,2.014 5.336,3.086c0,0 6.773,3.473 9.398,0c2.625,-3.473 -2.968,-5.873 -2.361,-8.207c0.386,-1.482 1.209,-2.963 2.305,-3.656c3.937,-2.487 7.666,2.043 11.646,2.043c2.266,0 5.09,0.016 6.43,-2.611c1.443,-2.832 1.926,-6.416 1.828,-9.6c-0.012,-0.365 0.682,-0.492 0.881,-0.561c0.47,0.529 0.519,1.467 0.566,2.185c0.09,1.319 0.006,2.855 -0.254,4.4c0.879,-0.515 1.654,-1.237 2.115,-1.79c2.346,-2.806 2.362,-6.981 1.255,-10.497z" fill="#272525"/></g><g stroke="none" stroke-width="1"><path d="M116.38434,160.37151c1.942,2.829 2.19,7.079 0.769,10.256c-1.855,4.148 -7.004,2.283 -8.813,-0.902c-3.755,-6.606 3.199,-16.414 8.044,-9.354z" fill="#272525"/><path d="M114.52634,161.17851c2.125,2.684 3.354,11.29 -1.819,9.686c-2.894,-0.896 -4.519,-6.926 -2.55,-9.542c0.919,-1.222 3.41,-1.355 4.369,-0.144z" fill="#ffffff"/><path d="M113.44134,166.83551c0,-1.00405 0.69351,-1.818 1.549,-1.818c0.85549,0 1.549,0.81395 1.549,1.818c0,1.00405 -0.69351,1.818 -1.549,1.818c-0.85549,0 -1.549,-0.81394 -1.549,-1.818z" fill="#272525"/></g><g stroke="none" stroke-width="1"><path d="M116.38434,155.62251c-1.268,-0.259 -1.805,-3.722 -4.487,-2.992c-0.75,0.204 -2.818,2.015 -3.074,1.709c-0.174,-1.646 0.91,-3.92 2.021,-4.89c3.369,-2.938 6.494,1.569 5.54,6.173zM115.69734,153.34451c-1.435,-5.936 -5.153,-2.889 -5.541,-1.045c2.229,-1.257 3.808,-1.155 5.541,1.045z" fill="#272525"/><path d="M115.69734,153.34451c-1.733,-2.2 -3.312,-2.302 -5.541,-1.045c0.388,-1.844 4.107,-4.891 5.541,1.045z" fill="#8ed1d8"/></g><g stroke="none" stroke-width="1"><path d="M104.45534,173.28551c0.176,4.263 -7.213,5.033 -9.625,2.375c-0.459,-0.507 -1.168,-1.094 -0.891,-1.947c1.391,-4.246 8.128,-4.795 10.516,-0.428z" fill="#272525"/><path d="M103.08034,173.47551c-1.816,3.381 -7.551,2.452 -7.764,0.57c1.153,-2.596 6.494,-3.069 7.764,-0.57z" fill="#ffffff"/><path d="M100.43234,174.28351c0,-1.00405 0.69351,-1.818 1.549,-1.818c0.85549,0 1.549,0.81395 1.549,1.818c0,1.00405 -0.69351,1.818 -1.549,1.818c-0.85549,0 -1.549,-0.81394 -1.549,-1.818z" fill="#272525"/></g><g stroke="none" stroke-width="1"><path d="M102.11034,167.77751c-2.91,-0.083 -7.437,-0.317 -9.625,0.38c1.582,-4.632 8.711,-5.739 9.625,-0.38zM100.16934,166.44851c-1.463,-2.277 -4.951,-0.879 -6.229,0.903c1.979,-0.84 4.14,-1.044 6.229,-0.903z" fill="#272525"/><path d="M100.16934,166.44851c-2.088,-0.141 -4.25,0.063 -6.229,0.903c1.278,-1.782 4.765,-3.18 6.229,-0.903z" fill="#8ed1d8"/></g><g stroke="none" stroke-width="1"><path d="M30.12834,191.22051c-5.312,-1.353 -10.52,-11.571 -8.296,-19.295c2.298,-7.942 7.628,-11.44 14.806,-12.53c-2.67,2.382 -4.692,3.481 -6.065,7.09c-2.078,5.452 -1.049,11.499 3.074,15.393c0.274,0.593 0.723,1.03 1.27,1.525c0.074,0.066 0.149,0.096 0.223,0.109c0.513,1.24 0.56,2.662 0.205,4.032c-0.293,1.129 -0.986,2.07 -1.878,2.796c-0.918,0.747 -2.194,0.717 -3.339,0.88z" fill="#20a6d8"/><path d="M34.95334,160.33551c-2.388,0.699 -4.617,2.189 -6.548,4.02c-4.28,3.868 -6.555,10.169 -4.873,16.396c1.25,3.651 3.834,6.669 6.961,8.404c0.266,0.678 -1.445,3.668 -3.783,1.486c-3.878,-3.615 -6.19,-8.714 -5.952,-14.416c0.482,-9.485 8.101,-18.812 20.49,-18.335c-0.524,0.319 -1.047,0.639 -1.634,0.824c-4.307,2.335 -8.49,7.389 -8.993,13.228c-0.424,3.346 0.816,7.372 3.37,8.885c0.384,0.595 0.569,1.366 0.646,2.023c0.04,0.347 0.028,0.744 -0.122,1.072c-0.031,0.042 -0.062,0.081 -0.093,0.123c-0.75,0.45 -1.287,-0.669 -1.94,-1.195c-3.268,-3.202 -4.11,-9.558 -3.018,-13.949c0.693,-3.515 3.14,-6.529 5.489,-8.566z" fill="#272525"/></g><g stroke="none" stroke-width="1"><path d="M56.42934,236.74251c1.831,2.543 0.133,6.961 -3.997,7.039c0.932,5.084 -2.598,5.123 -5.196,4.85c-1.665,-0.157 -2.331,1.799 -3.996,1.877c-1.965,0.117 -3.745,-0.542 -4.529,-2.659c-1.999,-5.395 -0.301,-12.903 -2.931,-20.333c-1.601,-4.555 -3.896,-7.438 -6.027,-10.504c-1.972,-13.749 12.255,-8.978 19.083,16.132c0.965,3.551 5.494,0.704 7.593,3.598z" fill="#20a6d8"/><path d="M56.89534,242.39251c-0.754,1.073 -2.427,1.541 -3.518,1.946c0.736,5.149 -4.008,6.935 -6.803,6.382c-1.475,1.735 -3.104,2.27 -5.136,1.854c-6.728,-1.385 -4.11,-13.43 -4.844,-18.729c-1.032,-7.453 -5.307,-12.587 -8.813,-18.443c0.054,-1.062 -0.041,-2.49 1.224,-1.871c0.028,0.014 0.557,0.635 0.584,0.644c2.383,4.364 5.082,8.56 7.088,13.406c2.091,5.051 1.328,11.26 1.779,16.617c0.688,8.185 9.182,5.986 7.765,0.809c-0.288,-1.052 -0.777,-1.388 -1.457,-2.28c2.705,-0.67 3.103,3.098 2.588,5.366c2.38,1.117 5.302,-1.266 4.286,-4.465c-0.453,-1.428 -1.238,-1.983 -2.224,-3.418c1.57,-0.375 2.913,1.037 3.761,2.421c4.044,-0.009 4.646,-7.341 -4.044,-6.837c-1.196,-1.695 -6.212,-16.543 -5.873,-18.1c1.851,-0.939 5.779,14.134 6.358,16.151c2.793,0.129 6.38,0.635 7.765,3.988c0.524,1.271 0.28,3.47 -0.486,4.559z" fill="#272525"/></g><g stroke="none" stroke-width="1"><path d="M120.58734,210.41151c1.563,4.497 2.068,7.833 -0.999,11.104c-3.599,3.832 -11.027,5.865 -17.521,4.066c-4.73,-1.33 -8.06,-3.207 -10.925,-6.883c-1.683,-2.163 -1.531,-4.264 -2.93,-6.727c-0.081,0.063 -0.15,0.123 -0.229,0.185c-0.331,-1 -0.553,-2.104 0.216,-2.938c0.827,-0.897 2.241,-0.239 3.111,0.18c0.33,0.159 0.656,0.339 0.981,0.522c3.221,5.505 9.582,3.775 15.241,1.587c-0.5,-1.009 -0.83,-2.074 -0.975,-3.135c0.325,-3.073 1.574,-5.772 3.949,-7.457c-0.001,0.006 -0.002,0.011 -0.003,0.017c2.235,-0.97 4.744,-0.521 6.35,1.659c1.432,1.955 2.898,5.435 3.734,7.82z" fill="#20a6d8"/><path d="M121.28734,220.33551c-2.779,5.758 -10.482,6.458 -15.527,6.174c-5.779,-0.329 -12.146,-3.006 -15.609,-8.644c-1.123,-1.828 -2.35,-3.762 -2.547,-6.076c0.139,-0.832 0.363,-1.147 0.889,-0.666c0.892,0.818 2.254,4.225 3.316,5.604c5.652,7.342 12.646,8.853 20.746,7.405c2.863,-0.513 6.838,-1.861 7.885,-5.507c1.129,-3.936 -0.838,-11.164 -3.314,-14.008c-4.232,-4.856 -10.271,-1.306 -10.271,2.99c0,1.025 0.86,1.977 1.454,2.612c1.355,-3.946 4.834,-4.263 7.765,-2.755c-4.951,-0.888 -8.953,4.714 -5.055,7.977c1.821,-4.156 6.82,-2.623 6.592,-2.279c-0.268,0.404 -0.966,0.164 -1.375,0.238c-3.314,0.605 -4.77,4.762 -2.306,6.172c1.024,0.588 2.307,0.06 3.194,0.998c0.278,2.074 -3.939,1.076 -4.771,0.477c-1.759,-1.271 -1.831,-3.285 -1.562,-4.068c-1.564,-0.988 -2.683,-2.89 -2.795,-4.634c-3.148,2.05 -14.074,2.914 -16.874,-2.836c-0.183,-0.375 -0.178,-0.745 -0.061,-1.104c0.272,0.163 0.52,0.435 0.727,0.63c0.376,0.356 0.775,0.831 1.25,1.114c3.224,2.56 9.561,1.968 13.612,0.853c-1.536,-1.516 -1.585,-4.475 -1.173,-5.812c0.816,-2.65 3.752,-5.016 6.106,-5.223c3.899,-0.345 7.493,3.037 9.243,6.653c1.625,3.359 2.17,10.178 0.461,13.715z" fill="#272525"/></g><g stroke="none" stroke-width="1"><path d="M93.69934,241.31551c1.766,2.266 -0.594,6.734 -3.157,7.475c1.531,3.131 -3.398,6.02 -6.396,5.32c-2.63,-0.629 -4.162,2.424 -6.793,1.719c-2.631,-0.703 -4.23,-3.4 -4.13,-6.567c0.066,-2.349 1.665,-3.286 1.731,-5.632c0.1,-2.934 -5.794,-15.721 -7.46,-21.584c-0.024,0.004 -0.044,0.006 -0.068,0.01c-0.29,-3.626 3.228,-5.774 6.736,-5.135c1.776,0.324 2.839,1.755 3.828,3.223c-0.036,0.006 -0.068,0.016 -0.104,0.023c2.792,8.327 2.786,12.504 7.58,18.682c1.93,2.503 5.545,-0.984 8.233,2.466z" fill="#20a6d8"/><path d="M94.74134,246.68951c-1.008,2.162 -2.502,2.553 -3.502,2.709c0.666,7.039 -6.444,7.011 -7.623,5.234c-4.704,4.537 -9.601,2.027 -11.052,-2.051c-1.082,-3.037 -0.588,-6.609 1.043,-9.191c-2.314,-5.36 -6.919,-20.283 -7.066,-20.257c-0.032,0.006 -0.066,0.011 -0.097,0.016c-0.044,-0.284 -0.084,-0.567 -0.112,-0.852c-0.06,-0.606 -0.07,-1.225 0.092,-1.816c0.054,-0.198 0.167,-0.354 0.309,-0.467c0.271,-0.051 0.539,-0.098 0.812,-0.155c0.196,0.059 0.374,0.185 0.49,0.404c0.023,0.045 0.055,0.073 0.085,0.104c0.705,4.061 7.741,22.936 7.775,23.145c0.149,0.906 -3.429,5.055 -0.849,8.878c1.862,2.76 5.744,3.801 7.442,0.238c1.564,-3.287 -0.242,-4.399 -0.971,-5.604c2.519,-0.297 3.264,2.365 2.831,4.797c-0.087,0.492 -0.346,0.781 -0.403,1.282c2.365,0.342 7.295,0.029 5.662,-4.558c-0.593,-1.661 -1.498,-2.273 -3.115,-3.229c2.332,-1.696 3.614,2.564 5.138,1.853c0.53,-0.249 1.641,-1.069 1.858,-1.711c1.621,-4.713 -3.903,-6.703 -7.116,-4.463c-3.402,-2.549 -8.337,-16.849 -9.222,-21.551c-0.123,-0.653 0.284,-1.014 0.768,-1.279c0.958,0.152 1.59,1.008 2.109,1.973c-0.048,0.02 -0.082,0.035 -0.09,0.042c1.438,6.333 3.32,13.906 6.635,19.103c3.868,-2.396 11.334,0.621 8.169,7.406z" fill="#272525"/></g><g stroke="none" stroke-width="1"><path d="M132.93634,182.23151c-3.614,0.887 -9.998,-0.198 -12.099,-5.327c-3.039,-7.419 13.72,-12.784 16.636,-7.695c2.937,5.127 -0.924,12.134 -4.537,13.022zM136.12434,170.52451c-1.843,-2.626 -11.087,0.235 -12.198,3.372c-1.669,4.701 6.069,7.023 8.674,6.233c2.605,-0.788 5.066,-7.407 3.524,-9.605z" fill="#272525"/><path d="M136.12434,170.52351c1.542,2.199 -0.919,8.817 -3.524,9.605c-2.606,0.79 -10.343,-1.532 -8.674,-6.233c1.111,-3.136 10.355,-5.998 12.198,-3.372z" fill="#205ed8"/></g><g stroke="none" stroke-width="1"><path d="M84.94234,191.54651c-1.764,2.698 -5.427,2.229 -7.459,-0.156c-2.432,-2.855 -3.331,-5.632 -3.331,-9.698c0,-7.272 0.866,-13.802 6.395,-17.049c2.699,-1.564 4.999,-0.39 7.728,1.096c1.498,0.821 2.932,1.252 3.33,3.128c0.368,1.838 -0.797,2.894 -1.731,4.38c-3.798,5.944 -0.998,12.357 -4.932,18.299z" fill="#205ed8"/><path d="M91.40834,170.04051c0.623,1.913 -1.82,4.457 -2.196,6.188c-1.067,4.909 -0.757,8.595 -2.709,13.438c-0.956,2.368 -2.665,4.904 -5.178,4.89c-3.182,-0.02 -6.869,-4.283 -7.643,-7.738c-1.414,-6.323 0.286,-19.461 6.362,-22.38c1.2,-0.536 1.861,-0.673 2.843,-0.664c1.226,-0.049 4.426,-0.016 7.122,3.217c-0.975,0.344 -5.86,-3.051 -9.453,-1.018c-5.74,3.249 -7.54,20.374 -1.941,25.07c1.187,0.996 3.376,1.496 4.65,0.475c5.427,-4.348 2.57,-22.228 8.143,-21.478z" fill="#272525"/></g></g></g></svg>