<svg version="1.1" xmlns="http://www.w3.org/2000/svg" xmlns:xlink="http://www.w3.org/1999/xlink" width="103.9798" height="284.73701" viewBox="0,0,103.9798,284.73701"><g transform="translate(-183.83594,-29.74519)"><g data-paper-data="{&quot;isPaintingLayer&quot;:true}" fill-rule="nonzero" stroke-linecap="butt" stroke-linejoin="miter" stroke-miterlimit="10" stroke-dasharray="" stroke-dashoffset="0" style="mix-blend-mode: normal"><path d="M195.07604,222.40648v-94.25234h89.84793v94.25234z" fill="#ffff78" stroke="none" stroke-width="0"/><path d="M194.74487,314.48221v-97.25234h20.54275v97.25234z" fill="#ffff78" stroke="none" stroke-width="0"/><path d="M267.27299,314.15105v-97.25234h20.54275v97.25234z" fill="#ffff78" stroke="none" stroke-width="0"/><path d="M222.28923,135.8881v-35.05539h30.31656v35.05539z" fill="#ffff78" stroke="none" stroke-width="0"/><path d="M218.67533,88.70764v-43.32635h39.09523v43.32635z" fill="#ffff78" stroke="#ffff78" stroke-width="25"/><path d="M209.82139,30.55478h0.26945c5.44106,0 10.86575,0.00125 16.29184,0.27256c0.66914,0.03346 3.95809,0.49841 4.83789,0.30303c1.30349,-0.28946 2.46325,-1.08445 3.77237,-1.34727c0.24054,-0.04829 5.75424,-0.03668 6.08524,-0.03668c7.84133,0 15.5841,0.75055 23.4426,0.80837c2.59375,0.01909 5.50541,-0.3507 7.45926,2.17625c1.07313,1.38789 0.69828,7.60268 0.69929,9.48523c0.00406,7.5669 0.56444,15.07301 0.52675,22.65734c1.63309,8.16545 0.01216,17.00981 0.01216,25.30567c0,3.08683 0.86352,7.72856 -2.21553,9.91043c-1.10879,0.78571 -2.7003,0.32264 -4.05683,0.40377c-4.72051,0.28231 -9.55162,0 -14.28112,0c0,0 -2.5,0 -2.5,-2.5c0,-2.5 2.5,-2.5 2.5,-2.5c3.86219,0 7.72438,0 11.58657,0c1.349,0 2.74756,0.83192 4.02681,0.40377c0.26801,-0.0897 0.00016,-0.56528 -0.00544,-0.84785c-0.01437,-0.72527 -0.04635,-1.4502 -0.05446,-2.17557c-0.02008,-1.79626 0,-3.59274 0,-5.3891c0,-7.30524 1.45473,-14.90562 0.01217,-22.11843c-0.0279,-6.74547 -0.54763,-13.46622 -0.55108,-20.18602c-0.00138,-2.6887 -0.36807,-5.56904 -0.26635,-8.22857c0.01886,-0.49309 0.63475,-0.97006 0.42672,-1.41751c-0.15422,-0.33171 -0.73135,-0.02677 -1.09715,-0.0245c-1.72863,0.01073 -3.45713,0.04511 -5.18579,0.04511c-6.87527,0 -13.61108,-0.80837 -20.47858,-0.80837c-1.744,0 -3.52753,-0.40648 -5.23188,-0.03668c-1.30489,0.28313 -2.46224,1.0895 -3.77237,1.34727c-1.93045,0.37982 -4.01951,-0.13984 -5.94032,-0.23588c-5.34352,-0.26718 -10.68431,-0.26635 -16.04277,-0.26635h-0.26945c0,0 -0.23149,0 -0.55358,-0.07044l-1.3848,1.3848c0.96967,1.88829 0.05898,4.17661 -0.19528,6.9189c-0.17551,1.89305 0.0101,3.80233 0.0101,5.7035c0,13.51756 0.26945,26.87819 0.26945,40.41826c-0.00045,0.37171 -0.33759,5.38572 0.38455,5.65952c0.49513,0.18773 1.02182,-0.33315 1.55127,-0.34222c3.63094,-0.06222 7.5894,0.15791 11.14396,0.85381l2.0827,0.58656c0,0 2.40381,0.6868 1.71701,3.09061c-0.6868,2.40381 -3.09061,1.71701 -3.09061,1.71701l-1.68967,-0.49127c-3.44873,-0.70721 -6.90782,-0.43476 -10.41244,-0.76292c-1.27876,-0.11974 -2.76708,0.36704 -3.83784,-0.34222c-3.28063,-2.17306 -2.84531,-6.7009 -2.84892,-9.96887c0,-13.53945 -0.26945,-26.90038 -0.26945,-40.41826c0,-3.92529 0.40503,-7.6968 0.53891,-11.58657c0.04282,-1.24403 -0.66993,-2.86078 0.22342,-3.72759c0.17247,-0.16735 0.35559,-0.31842 0.54766,-0.45582c0.09077,-0.12459 0.16752,-0.21148 0.20536,-0.25235l-0.1227,-0.14023l2.14652,-1.87821c0.44092,-0.38989 1.02052,-0.62653 1.65538,-0.62653c0.2122,0 0.41822,0.02643 0.61495,0.07619c0.64561,-0.34565 1.31406,-0.34565 1.31406,-0.34565z" fill="#ffff78" stroke="none" stroke-width="0.5"/><path d="M195.00136,222.29107v-25.59823h92.11372v25.59823z" fill="#ff78bb" stroke="#ffff78" stroke-width="0"/><path d="M183.83594,186v-0.5h5v0.5z" fill="#ffff78" stroke="none" stroke-width="0"/></g></g></svg>