<svg version="1.1" xmlns="http://www.w3.org/2000/svg" xmlns:xlink="http://www.w3.org/1999/xlink" width="113.67304" height="91.07916" viewBox="0,0,113.67304,91.07916"><g transform="translate(-182.1629,-13.42084)"><g data-paper-data="{&quot;isPaintingLayer&quot;:true}" fill="#521414" fill-rule="nonzero" stroke="none" stroke-width="0.5" stroke-linecap="butt" stroke-linejoin="miter" stroke-miterlimit="10" stroke-dasharray="" stroke-dashoffset="0" style="mix-blend-mode: normal"><path d="M215.61377,43.13651c-1.87828,4.61479 -4.3158,9.4079 -5.47503,14.27224c-0.73109,3.0678 -1.2405,6.10423 -2.17568,9.12446c-0.85989,2.77709 -2.39614,5.73965 -3.74216,8.7582c0.3225,0.94299 0.61691,1.9377 0.79895,3.02812c0.75729,4.53599 -0.05047,8.90587 -1.5232,13.22848c-0.03717,0.1091 -0.07443,0.2198 -0.11201,0.33172c0.25142,1.84524 0.33276,3.7182 0.28848,5.57848l-0.508,0.47344l0.24245,0.14547l-1.26645,2.11075c-0.43183,0.74893 -1.24069,1.25305 -2.16731,1.25305c-0.99349,0 -1.85162,-0.57951 -2.25482,-1.41894l-0.64698,1.59605c0,0 -1.11803,2.23607 -3.3541,1.11803c-0.34711,-0.17356 -0.6134,-0.37406 -0.81559,-0.58895l-2.56638,-0.14711c-0.06853,-0.0992 -0.13549,-0.19978 -0.20086,-0.30167c-0.33249,0.18412 -0.75704,0.30167 -1.29914,0.30167c-0.3932,0 -0.72455,-0.06184 -1.00379,-0.16607c0.00251,0.05409 0.00379,0.10944 0.00379,0.16607c0,2.5 -2.5,2.5 -2.5,2.5l-3,-2.5c0,-5.16667 0,-10.33333 0,-15.5c0,-2.47764 -0.41786,-5.54841 0.04511,-7.97277c0.28929,-1.5149 0.9892,-2.98533 0.95489,-4.52723c0.02818,-1.85701 0.71012,-3.64601 1.04511,-5.47277c0.46395,-2.53 -0.00215,-5.45923 0.5,-8c0.17402,-0.8805 0.81477,-1.62179 1,-2.5c0.46255,-2.193 -0.05729,-5.30151 -0.04511,-7.52723c0.01511,-2.76202 0.47286,-5.81192 1.04511,-8.47277c1.23966,-5.76422 6.09316,-11.39395 8.71882,-16.64527c0,0 0.99951,-1.99902 2.99853,-1.27182c0.32627,-0.61801 0.73584,-1.16422 1.23205,-1.60601c1.0901,-0.97053 2.89829,-0.60764 4.35224,-0.47996c0.50914,0.04471 1.02637,0.12243 1.53939,0.23256c0.35982,-0.42779 0.78002,-0.82936 1.11386,-1.25673c0.74438,-0.95294 1.27767,-2.24339 2.38197,-2.73607c0.82364,-0.36746 1.90137,-0.47148 3.04693,-0.36649c1.91332,-0.58868 3.83434,-0.89212 4.53288,-0.42555c0.2954,0.19731 0.51237,0.45639 0.67045,0.75831c0.46675,-0.10322 0.92843,-0.18118 1.37694,-0.2315c1.75668,-0.87566 3.64265,-1.50032 5.54992,-1.57453c0.45838,-0.5639 1.15758,-0.92418 1.94092,-0.92418c0.18573,0 0.36673,0.02025 0.54091,0.05867l2.44938,0.48988l-0.0197,0.09848l0.24177,-0.04338c0.51021,0.21251 1.02043,0.42501 1.53064,0.63752c0.8641,-0.03966 1.76117,0.05516 2.61868,-0.0005c4.57256,-0.29678 9.16776,-0.32564 13.76149,-0.30031c2.2932,-1.43873 3.52004,-3.70257 7.33352,-2.25005c1.03339,0.39361 1.84377,1.30394 2.59609,2.3097c0.73633,0 1.9472,0 1.9472,0c0.93866,0 1.75649,0.51731 2.18395,1.28238c0.54957,0.09989 1.0707,0.27541 1.54779,0.54212c0.54925,0.30705 0.91852,0.81506 1.24005,1.37638c0.06347,-0.0143 0.10715,-0.02549 0.12671,-0.03269c1.28255,-0.47191 2.0668,-1.84484 2.78896,-3.00507c0.68159,-1.09505 1.33551,-2.18061 2.00762,-3.24228c1.68893,1.30365 3.80636,2.07917 6.10493,2.07917c1.04511,0 2.05277,-0.16032 2.99974,-0.45772c-0.00451,0.39555 -0.07232,0.72743 -0.18293,1.0059c0.55819,-0.18257 1.26172,-0.16712 2.06993,0.37168c2.08013,1.38675 0.69338,3.46688 0.69338,3.46688l-1.58013,2.11325c-0.10736,0.07716 -0.21327,0.15215 -0.31785,0.22498l-0.18215,1.27502c-0.66301,0.86799 -1.24058,1.73458 -1.92781,2.48851c0.28906,0.23998 0.55077,0.58743 0.749,1.08301c0.92848,2.32119 -1.39272,3.24967 -1.39272,3.24967l-2.56858,1.02627c-4.80945,1.55743 -9.22946,1.61566 -14.05886,0.05284c-1.0178,-0.25936 -2.05033,-0.46131 -3.09389,-0.61722c-0.66014,1.21692 -2.20714,1.21692 -2.20714,1.21692l0.00002,0.00001c-1.66667,0 -4.83333,0 -6.5,0c-3.49959,0 -7.00051,0.02643 -10.5,0c-2.51236,-0.01897 -4.78712,0.33725 -6.92652,-1.42987c-0.91389,0.13605 -1.78021,0.35876 -2.55306,0.71213c-0.83013,0.37956 -1.35829,1.31825 -2.22986,1.58944c-1.10151,0.34275 -2.40894,0.34898 -3.78322,0.24698c-0.27102,3.98023 -4.77829,6.45225 -6.22952,10.01781z"/><path d="M279.52537,96.28081c-2.5,0 -2.5,-2.5 -2.5,-2.5v-2.15004c0.06362,-4.29584 -2.95662,-6.59849 -3.81902,-10.67756c-0.69166,-3.2715 0.65689,-6.74513 0.49964,-10.05545c-0.51839,-0.74499 -0.96604,-1.60343 -1.27758,-2.72414c-0.22138,-0.79637 -0.36261,-1.59272 -0.4499,-2.38942c-0.5907,-1.12998 -1.21612,-2.24218 -1.86912,-3.33665c-0.59571,-0.99844 -1.75273,-1.70914 -2.02599,-2.83922c-0.3164,-1.30846 0.24462,-2.68121 0.36693,-4.02182c0,0 0.35355,-2.47487 2.82843,-2.12132c0.01264,0.00181 0.0252,0.00367 0.0377,0.00558c-0.73811,-2.60477 -1.97274,-4.93546 -2.47199,-7.76458c0.00136,-0.91568 -0.06064,-1.8149 -0.15449,-2.70629c-0.4726,-1.78205 -0.83764,-3.51223 -0.85403,-5.49991c-0.00687,-0.83331 -0.58926,-1.91074 0,-2.5v-2.5c0,-0.56531 0.18763,-1.08679 0.50401,-1.50557c-0.61897,-0.44707 -1.44415,-1.37553 -0.82521,-2.92291c0.92848,-2.32119 3.24967,-1.39272 3.24967,-1.39272c0.75336,0.33036 1.61698,0.49369 2.35328,0.84989c-0.22723,-0.32831 -0.47147,-0.65077 -0.73393,-0.96696c0,0 -1.56174,-1.95217 0.39043,-3.51391c0.45183,-0.36146 0.88274,-0.53469 1.27821,-0.58745c-0.31439,-0.49093 -0.72654,-0.93209 -1.18932,-1.29298c-0.98827,0.00317 -2.03112,0.33261 -3.02716,0.33261c-2.66667,0 -5.33333,0 -8,0c0,0 -2.5,0 -2.5,-2.5c0,-2.5 2.5,-2.5 2.5,-2.5c3.31487,0 6.64007,-0.07597 9.9549,-0.01185c1.25938,-1.07506 2.83134,-0.13189 2.83134,-0.13189l0.00002,0.00002c0.04094,0.02657 0.08223,0.05273 0.12384,0.07854c0.31522,0.02602 0.62291,0.08649 0.91744,0.20612c3.68206,1.49558 4.83419,4.59635 6.4121,7.74816c2.26737,4.52898 3.35616,8.61645 4.67663,13.46924c1.5173,5.57613 3.71964,10.41261 4.54786,16.21959c0.57672,2.94651 0.22705,5.73557 0.52372,8.67574c0.37239,3.69053 1.17403,7.30443 1.5,11c0.59841,6.78421 2.48181,13.39364 2.51217,20.24634v2.5c0,0 0,2.5 -2.5,2.5c-1.94119,0 -2.37509,-1.50729 -2.47208,-2.18112c-1.28781,0.89595 -3.06591,0.77741 -5.46128,-1.23391c-0.03344,-0.02808 -0.06522,-0.05712 -0.09539,-0.08707l-0.13351,-0.00974c-0.12394,0.25604 -0.30819,0.51782 -0.56997,0.7796c-1.76777,1.76777 -3.53553,0 -3.53553,0c-0.08518,-0.0942 -0.17492,-0.18575 -0.26784,-0.27544c-0.32883,0.17653 -0.74592,0.28849 -1.27497,0.28849zM285.78739,52.00971c0.075,0.44661 0.17874,0.854 0.30189,1.23517c-0.14563,-0.7535 -0.3128,-1.49146 -0.4963,-2.21852c0.06392,0.32774 0.12871,0.65552 0.19441,0.98334z"/></g></g></svg>