<svg version="1.1" xmlns="http://www.w3.org/2000/svg" xmlns:xlink="http://www.w3.org/1999/xlink" width="178.11884" height="135.03294" viewBox="0,0,178.11884,135.03294"><g transform="translate(-161.24886,-91.63589)"><g data-paper-data="{&quot;isPaintingLayer&quot;:true}" fill="#000000" fill-rule="nonzero" stroke="none" stroke-width="0.5" stroke-linecap="butt" stroke-linejoin="miter" stroke-miterlimit="10" stroke-dasharray="" stroke-dashoffset="0" style="mix-blend-mode: normal"><path d="M174.06814,215.23197c20.38328,0 40.76655,0 61.14983,0c9.74093,0 20.05699,1.00433 29.76158,0.01704c2.89839,-0.29487 5.72178,-1.15167 8.62114,-1.43686c4.42668,-0.43542 8.89607,-0.01704 13.34411,-0.01704c6.05363,0 10.66928,-0.7486 16.82987,-1.41982c3.23817,-0.35281 7.57094,0.80493 10.75849,0.11672c1.04685,-0.22602 1.83472,-1.17711 2.87371,-1.43686c0.9293,-0.23233 1.94441,0.23233 2.87371,0c1.03899,-0.25975 1.82948,-1.19903 2.87371,-1.43686c1.30807,-0.29791 2.68255,-0.20014 4.02248,-0.13376c0.3439,0.01704 0.63393,0.49033 0.9603,0.3806c2.10371,-0.70731 1.22399,-8.77725 1.22399,-9.74916c0,-0.9579 -0.22305,-1.94214 0,-2.87371c0.061,-0.25477 0.95224,-0.08256 0.74675,-0.24506c-0.84006,-0.66428 -2.28295,-0.54356 -2.87371,-1.43686c-0.57862,-0.87494 0.47483,-2.30433 -0.15512,-3.14308c-0.82606,-1.09985 -2.65864,-0.97104 -3.65059,-1.92399c-0.88863,-0.8537 -1.16312,-2.17278 -1.74468,-3.25917c-2.55242,-2.51001 -5.79284,-4.25673 -8.31332,-6.79882c-0.86761,-0.87505 -1.00585,-2.27297 -1.74468,-3.25917c-0.88185,-1.17713 -2.32325,-1.90191 -3.07076,-3.16861c-0.64158,-1.08719 -0.24391,-2.62419 -0.96087,-3.66322c-0.40211,-0.58274 -1.4458,-0.24242 -2.01999,-0.65665c-1.09864,-0.79257 -1.8002,-2.04743 -2.87371,-2.87371c-1.54637,-1.19024 -4.96671,-3.01395 -6.84635,-3.50053c-0.75585,-0.19567 -1.83189,0.27984 -2.7307,0.21666c0.03487,0.13092 0.073,0.25918 0.12457,0.37643l-0.81967,0.87452l0.42556,0.21278l-1.38841,2.77683c-0.80172,1.69123 -2.52456,2.86082 -4.52058,2.86082c-1.99601,0 -3.71886,-1.16959 -4.52058,-2.86082l-1.38841,-2.77683l0.09653,-0.04827c-0.19321,-0.32819 -0.3589,-0.67322 -0.49064,-1.03904c-1.25926,-3.49668 -0.10444,-7.43236 -0.13376,-11.14876c-0.07103,-9.00384 0.67625,-16.99132 -2.49311,-25.44484c-1.30291,-3.47521 -1.51278,-7.5214 -3.74738,-10.48472c-2.34866,-3.11456 -7.27472,-5.84003 -11.11326,-6.60925c-2.55601,-0.51221 -5.21381,0.11122 -7.82023,0.06456c-1.8906,-0.03384 -4.9475,0.74681 -6.17532,2.46094c-2.49943,3.48938 -1.82961,6.34486 -1.78072,10.27402c-1.31438,6.57191 -1.45993,13.05452 -1.4446,19.632c0.35289,2.53963 0.45182,4.93834 0.03197,6.89827c0.00008,0.09241 0.00011,0.18484 0.00011,0.27731l-0.05864,-0.02494c-0.00208,0.00832 -0.00418,0.01663 -0.00629,0.02494h0.06493v2.87371c0,2.76142 -2.23858,5 -5,5c-2.76142,0 -5,-2.23858 -5,-5l0,-2.63246c-0.79429,-1.0248 -0.78922,-10.67834 -1.3628,-13.75246c-0.35577,-1.90674 -1.07065,-3.73526 -1.41766,-5.64362c-1.5656,-8.61006 -2.13354,-18.24936 -8.68678,-24.7259c-0.85462,-0.84462 -3.75024,-4.0673 -5.09767,-4.4975c-1.82249,-0.58187 -3.84796,0.52718 -5.73536,0.21454c-0.97913,-0.16219 -1.92816,-1.37123 -2.82387,-0.94379c-0.65678,0.31342 0.48831,1.47712 0.25899,2.16777c-1.48269,4.46545 -4.52477,7.24668 -5.45704,11.96383c-0.68181,3.44984 0.09022,7.03275 0.09022,10.54931c0,6.22638 0,12.45275 0,18.67913c0,3.08666 0.55096,7.07547 0,10.05799c-0.43805,2.37132 0.13221,5.96199 -2.07645,6.92992c-3.16931,1.38894 -7.0934,-0.14523 -10.26909,-1.51953c-1.36305,-0.58987 -1.25223,-2.7306 -2.19803,-3.87573c-0.16642,-0.20149 -0.25471,0.56262 -0.51442,0.59163c-0.95065,0.10618 -1.96154,-0.5383 -2.86165,-0.21454c-4.26507,1.53412 -5.17541,3.93185 -7.03478,7.5086c-0.8116,1.56123 -1.97414,2.9747 -2.4796,4.66012c-0.66118,2.20462 0.13376,6.53802 0.13376,8.90923c0,2.03047 0.02786,10.20142 -0.13376,11.20676c-0.16999,1.05739 -1.14488,1.84331 -1.43686,2.87371c-0.96759,3.41465 0.81134,7.93242 0,11.49485c-0.23782,1.04423 -1.17711,1.83472 -1.43686,2.87371c-0.23233,0.9293 0.23233,1.94441 0,2.87371c-0.25975,1.03899 -1.14488,1.84331 -1.43686,2.87371c-0.35471,1.25179 -0.03142,2.59258 0.07932,3.90923zM163.83395,215.81538c0.17078,-0.33596 0.3197,-0.68038 0.42238,-1.04274c0.52231,-1.84323 -0.42543,-3.87945 0,-5.74742c0.23782,-1.04423 1.17711,-1.83472 1.43686,-2.87371c0.23233,-0.9293 -0.23233,-1.94441 0,-2.87371c0.25975,-1.03899 1.14488,-1.84331 1.43686,-2.87371c0.96759,-3.41465 -0.81134,-7.93242 0,-11.49485c0.23782,-1.04423 1.25287,-1.81867 1.43686,-2.87371c0.51025,-2.92592 -0.13376,-5.93915 -0.13376,-8.90923c0,-3.23268 -0.68346,-8.25315 0.13376,-11.20676c0.6734,-2.43381 2.16658,-4.56224 3.26782,-6.83473c0.64707,-1.33529 3.15693,-6.38039 3.81031,-7.04689c1.04777,-1.06881 2.61606,-1.45603 3.89961,-2.22587c1.80726,-1.08396 3.36348,-2.69441 5.37128,-3.33462c3.29244,-1.04983 7.65295,-1.06862 10.81501,0.65725c0.00163,-0.06103 0.00247,-0.12182 0.00247,-0.18236c0,-7.18428 0,-14.36856 0,-21.55284c0,-2.22757 -0.01594,-11.91425 0.09022,-12.44039c0.80903,-4.00954 4.13328,-10.03627 6.03781,-13.89959c1.0573,-2.14473 1.10652,-5.18359 3.1327,-6.45336c2.4636,-1.5439 5.77325,-0.7069 8.67098,-0.94379c1.4614,-0.11947 8.60205,0.20395 8.6332,0.21454c4.34705,1.47727 9.89113,6.75738 12.66528,10.48305c1.77467,2.38336 3.07503,5.06248 4.07484,7.88778c0.56652,-1.12808 1.32916,-2.36607 2.35484,-3.80404c2.95512,-4.14297 9.20857,-6.09541 13.94066,-6.16019c3.14046,-0.04299 6.34215,-0.55071 9.42205,0.06456c4.90412,0.9797 10.02077,3.66958 13.86388,6.81615c5.61436,4.59678 6.13157,9.65084 8.63373,16.32186c2.04393,5.44932 3.24236,10.39047 3.25431,16.28198c0.00879,4.32989 0.03951,8.65998 0,12.9897c-0.00224,0.24593 0.00341,0.49368 0.01495,0.74279c3.87572,-0.75226 8.18597,0.28398 11.58968,1.91136c0.70612,0.33761 6.1273,3.0637 6.43491,3.28964c1.09181,0.80194 1.80098,2.04643 2.87371,2.87371c1.14477,0.88284 2.83401,1.08053 3.72743,2.21706c1.09473,1.3926 0.99154,3.44499 1.91284,4.95792c0.64438,1.05818 1.93263,1.58817 2.67667,2.57882c0.54698,0.72827 0.48122,1.84802 1.12904,2.48825c1.04136,1.02917 2.61533,1.36923 3.73212,2.31601c1.87891,1.5929 3.46456,3.50249 5.19684,5.25373c0.37635,0.82942 0.4961,1.8333 1.12904,2.48825c1.45261,1.50312 3.71726,2.1505 4.97055,3.82344c0.52142,0.696 -0.64054,1.88277 -0.15512,2.60435c0.59779,0.88861 2.37832,0.48735 2.87371,1.43686c0.87557,1.67817 0.74675,6.12178 0.74675,8.37608c0,7.25759 0.26314,14.97037 -7.39715,18.98796c-1.92373,1.00894 -4.42211,-0.34538 -6.51208,0.24685c-1.0304,0.29198 -1.83472,1.17711 -2.87371,1.43686c-0.9293,0.23233 -1.94441,-0.23233 -2.87371,0c-1.03899,0.25975 -1.82127,1.23849 -2.87371,1.43686c-3.99207,0.75242 -8.22156,-0.33802 -12.23121,0.11672c-6.30503,0.71506 -11.39328,1.45389 -17.65468,1.45389c-4.17311,0 -8.36763,-0.4394 -12.5193,-0.01704c-2.89839,0.29487 -5.72178,1.15167 -8.62114,1.43686c-9.99372,0.98301 -20.56062,0.01704 -30.58638,0.01704c-21.29317,0 -42.58634,0 -63.8795,0c-0.73863,0.8099 -1.8822,1.43686 -3.65274,1.43686c-2.30996,0 -3.55274,-1.06719 -4.22136,-2.21549c-1.14831,-0.66862 -2.21549,-1.9114 -2.21549,-4.22136c0,-2.55673 1.30738,-3.80609 2.58508,-4.41659z"/></g></g></svg>