<svg version="1.1" xmlns="http://www.w3.org/2000/svg" xmlns:xlink="http://www.w3.org/1999/xlink" width="55.95924" height="53.54689" viewBox="0,0,55.95924,53.54689"><g transform="translate(-212.73531,-153.29048)"><g data-paper-data="{&quot;isPaintingLayer&quot;:true}" fill-rule="nonzero" stroke-linejoin="miter" stroke-miterlimit="10" stroke-dasharray="" stroke-dashoffset="0" style="mix-blend-mode: normal"><path d="M253.23227,178.89443c0,6.82749 -5.53478,12.36227 -12.36227,12.36227c-6.82749,0 -12.36227,-5.53478 -12.36227,-12.36227c0,-6.82749 5.53478,-12.36227 12.36227,-12.36227c6.82749,0 12.36227,5.53478 12.36227,12.36227z" fill="#431313" stroke="none" stroke-width="0" stroke-linecap="butt"/><path d="M238.49241,167.03469l2.61316,-6.03037l1.6081,6.23139" fill="none" stroke="#000000" stroke-width="5" stroke-linecap="round"/><path d="M251.55822,173.66811l9.24658,2.61316l-8.84455,3.41721" fill="none" stroke="#000000" stroke-width="5" stroke-linecap="round"/><path d="M243.3167,189.95012l-3.41721,9.04556l-2.61316,-8.84455" fill="none" stroke="#000000" stroke-width="5" stroke-linecap="round"/><path d="M229.44685,182.51265l-10.25164,-2.41215l9.44758,-5.82936" fill="none" stroke="#000000" stroke-width="5" stroke-linecap="round"/><path d="M233.86912,189.5481l-8.84455,3.81923l5.42734,-8.64354" fill="none" stroke="#000000" stroke-width="5" stroke-linecap="round"/><path d="M251.96024,182.91468l6.03037,8.84455l-11.05569,-2.41215" fill="none" stroke="#000000" stroke-width="5" stroke-linecap="round"/><path d="M245.92987,168.03976l9.04556,-6.83442l-4.8243,10.65366" fill="none" stroke="#000000" stroke-width="5" stroke-linecap="round"/><path d="M230.65292,171.65798l-3.81923,-9.6486l8.24151,6.23139" fill="none" stroke="#000000" stroke-width="5" stroke-linecap="round"/><path d="M247.93182,168.95729c-0.57791,-1.01134 1.89864,-4.96374 3.09943,-4.36334c0.02942,-0.00161 0.05904,-0.00243 0.08885,-0.00243c0.88387,0 1.60039,0.71652 1.60039,1.60039c0.05631,0.0898 0.01499,0.29331 -0.10093,0.56058c-0.03504,0.0937 -0.07862,0.18323 -0.12978,0.26766c-0.79761,1.50417 -3.26413,4.20134 -4.55796,1.93714z" fill="#585858" stroke="none" stroke-width="0.5" stroke-linecap="butt"/><path d="M253.66592,173.95145c0.05813,-0.00272 0.12219,0.00191 0.1912,0.01316c0.33845,0.02123 0.64837,0.14766 0.89744,0.34697c1.03945,0.55846 2.26046,1.62053 2.26046,2.12866c0,2.44053 -4.66482,2.11028 -4.66482,-0.11183c-0.12446,-0.22765 -0.19521,-0.48886 -0.19521,-0.7666c0,-0.78596 0.56656,-1.43959 1.31355,-1.57476c0.06202,-0.02004 0.12762,-0.03234 0.19737,-0.03561z" fill="#585858" stroke="none" stroke-width="0.5" stroke-linecap="butt"/><path d="M239.36899,165.60629c0,-0.88387 0.71652,-1.60039 1.60039,-1.60039c0.88387,0 1.60039,0.71652 1.60039,1.60039c0,0.88387 -0.71652,1.60039 -1.60039,1.60039c-0.88387,0 -1.60039,-0.71652 -1.60039,-1.60039z" fill="#585858" stroke="none" stroke-width="0.5" stroke-linecap="butt"/><path d="M229.41831,166.66056c1.87401,-2.60761 7.19532,3.71296 2.19419,4.32345c-0.09899,0.01915 -0.20125,0.02919 -0.30583,0.02919c-0.88387,0 -1.60039,-0.71652 -1.60039,-1.60039c0,-0.05979 0.00328,-0.11881 0.00967,-0.17689c-0.03045,-0.78621 -0.96564,-1.64586 -0.29763,-2.57536z" fill="#585858" stroke="none" stroke-width="0.5" stroke-linecap="butt"/><path d="M229.93118,175.80836c0.03249,0.11929 0.04546,0.23167 0.04487,0.33931c0.00193,0.03221 0.00291,0.06467 0.00291,0.09736c0,0.29125 -0.0778,0.56433 -0.21375,0.79959c-0.04062,0.13996 -0.07267,0.28328 -0.07905,0.43614c-0.02344,0.56131 0.42755,3.66243 -0.8978,4.06872c-0.46795,0.14345 -5.10495,-0.25195 -5.36606,-1.55748c-0.5279,-2.63949 2.7939,-3.26413 3.36112,-3.9649c0.00398,-0.00492 0.00786,-0.01001 0.01164,-0.01527c0.02883,-0.19749 0.09373,-0.38329 0.18781,-0.55047c0.27429,-0.48746 0.79654,-0.81672 1.39572,-0.81672c0.66266,0 1.23124,0.40274 1.47435,0.9768c0.03334,0.05738 0.05986,0.11939 0.07825,0.18692z" fill="#585858" stroke="none" stroke-width="0.5" stroke-linecap="butt"/><path d="M254.08068,190.14649c-0.59712,0.34122 -1.18029,-0.18781 -1.7235,-0.22146c-2.21704,-0.13731 -4.96543,-0.05828 -4.23017,-2.99932c0.21083,-0.84331 2.89236,-1.99924 3.61501,-2.36057c0.2224,-0.11709 0.47571,-0.18335 0.74451,-0.18335c0.58195,0 1.09134,0.31061 1.37145,0.77508c1.18291,1.35937 1.75823,4.11217 0.22269,4.98962z" fill="#585858" stroke="none" stroke-width="0.5" stroke-linecap="butt"/><path d="M240.18855,194.31717c-1.95741,0 -2.08949,-4.23157 -0.67504,-4.31015c0.2505,-0.16262 0.54934,-0.25707 0.87025,-0.25707c0.88387,0 1.60039,0.71652 1.60039,1.60039c0,0.23024 -0.04862,0.44913 -0.13615,0.64695c0.45578,1.16159 0.3693,2.31988 -1.65944,2.31988z" fill="#585858" stroke="none" stroke-width="0.5" stroke-linecap="butt"/><path d="M231.78787,185.94343c0.30114,-0.20075 0.82801,0.04071 1.25691,0.41535c0.14618,0.10927 0.27306,0.24296 0.37459,0.395c0.248,0.32042 0.38263,0.65938 0.26851,0.88763c0,0.88387 -0.71652,1.60039 -1.60039,1.60039c-0.1028,0 -0.20333,-0.00969 -0.30074,-0.02821c-1.22069,0.81046 -2.64432,1.55526 -3.05025,1.3233c-2.53202,-1.44687 0.50601,-4.22383 1.98456,-4.59347z" fill="#585858" stroke="none" stroke-width="0.5" stroke-linecap="butt"/></g></g></svg>