<svg version="1.1" xmlns="http://www.w3.org/2000/svg" xmlns:xlink="http://www.w3.org/1999/xlink" width="578.57357" height="395.12342" viewBox="0,0,578.57357,395.12342"><g transform="translate(49.28679,14.69219)"><g data-paper-data="{&quot;isPaintingLayer&quot;:true}" fill-rule="nonzero" stroke-linejoin="miter" stroke-miterlimit="10" stroke-dasharray="" stroke-dashoffset="0" style="mix-blend-mode: normal"><path d="M-46.78679,372.19219v-384.38438h573.57357v384.38438z" fill="#0082f8" stroke="#000000" stroke-width="5" stroke-linecap="butt"/><path d="M24.33276,377.93123l40.48593,-272.90516l131.95414,7.49739l28.4901,265.40777z" fill="#ff00a3" stroke="#000000" stroke-width="5" stroke-linecap="butt"/><path d="M66.31817,106.52554l-50.98228,-13.49531l122.95727,-83.97082l115.45988,100.46509l-56.9802,4.49844l-121.4578,-10.49636h-19.49323l-37.48697,-8.99687l121.45779,-85.4703l109.46196,101.96457l-55.48072,-1.49948l-136.45258,-5.99792" fill="none" stroke="#000000" stroke-width="5" stroke-linecap="round"/><path d="M157.81828,25.43905c4.71044,6.28059 11.17877,10.3996 16.88131,15.58372c1.84373,1.67612 3.57482,4.12559 5.48249,5.92354c2.06406,1.94535 5.58067,2.63391 7.70106,4.45139c2.30184,1.973 3.55647,4.98511 5.75184,7.09607c1.4796,1.42271 3.66264,2.42347 5.12221,3.77799c6.24106,5.79189 5.56226,7.91708 14.53514,13.45453c4.34836,2.68351 6.84979,5.66513 10.38562,9.67233c0.33252,0.37685 2.80024,4.08895 2.8795,4.09301c5.52664,0.2833 17.92516,11.66422 17.92516,17.36003c0,4.5475 -3.65382,6.99848 -7.54673,7.83067c-0.95557,0.20427 -1.62958,-0.3335 -2.62477,-0.37497c-4.88572,-0.20357 -9.79328,0.03795 -14.66479,-0.38651c-2.54083,-0.22139 -5.06537,-1.4339 -7.63165,-1.48832c-7.56485,-0.16043 -15.13333,0.05852 -22.69966,0c-6.6972,-0.0518 -12.8009,-1.8758 -19.2967,-2.62477c-3.9972,-0.46088 -8.03631,2.19575 -12.20057,1.87484c-2.0104,-0.15493 -4.20883,-1.49491 -5.99948,-1.49987c-13.67896,-0.03785 -27.59257,0.04673 -41.20212,0.04673c-9.21414,0 -18.55546,-5.54737 -27.7846,-5.67124c-14.768,-0.19822 -31.71378,-1.47231 -45.8827,-5.74137c-2.76647,-0.83353 -6.76535,0.16308 -9.24513,-1.57058c-0.37903,-0.26499 -3.77917,-6.03742 -3.75,-6.5625c0.03161,-0.56893 2.80975,-5.82803 3.75,-6.5625c2.93205,-2.29035 7.94102,-1.96037 10.98598,-3.8714c5.24136,-3.28949 10.24364,-10.40211 14.44414,-12.35361c3.5942,-1.66982 6.84698,-3.89119 10.19178,-5.89807c1.24174,-0.74504 3.24449,-0.57529 4.36275,-1.46287c1.5313,-1.21542 3.11005,-3.66601 4.63647,-4.53661c1.0878,-0.62043 2.82776,-0.14685 3.83176,-0.9375c1.46408,-1.15295 2.54471,-2.81261 3.97489,-4.03849c5.9541,-5.10352 14.00932,-8.55842 20.52947,-13.26447c2.67813,-1.933 3.02135,-4.73616 5.80684,-7.02806c1.96403,-1.616 6.7359,-1.74291 9.06792,-2.57653c3.55254,-1.26991 4.33679,-7.28893 6.74561,-9.53163c3.76749,-3.50767 5.54889,-3.37335 10.13187,-4.80724c1.76375,-0.55183 4.56842,-4.40339 6.65616,-4.12464c2.4973,0.33343 4.78098,1.96848 6.5625,3.75c0.97054,0.97054 -0.39806,3.69298 0.9375,4.00952c4.88462,1.15771 6.77877,3.35558 10.26334,7.18861z" fill="#339207" stroke="none" stroke-width="0.5" stroke-linecap="butt"/><path d="M287.56473,373.92222l28.4901,-265.40777l131.95414,-7.49739l40.48593,272.90516z" data-paper-data="{&quot;index&quot;:null}" fill="#ff6c00" stroke="#000000" stroke-width="5" stroke-linecap="butt"/><path d="M455.50637,99.51757l-136.45258,5.99792l-55.48072,1.49948l109.46196,-101.96457l121.45779,85.4703l-37.48697,8.99687h-19.49323l-121.4578,10.49636l-56.9802,-4.49844l115.45988,-100.46509l122.95727,83.97082l-50.98228,13.49531" data-paper-data="{&quot;index&quot;:null}" fill="none" stroke="#000000" stroke-width="5" stroke-linecap="round"/><path d="M355.99497,20.62927c3.48457,-3.83303 5.37872,-6.0309 10.26334,-7.18861c1.33556,-0.31654 -0.03304,-3.03898 0.9375,-4.00952c1.78152,-1.78152 4.0652,-3.41657 6.5625,-3.75c2.08774,-0.27875 4.89241,3.57281 6.65616,4.12464c4.58298,1.43389 6.36438,1.29957 10.13187,4.80724c2.40882,2.2427 3.19307,8.26172 6.74561,9.53163c2.33202,0.83362 7.10389,0.96053 9.06792,2.57653c2.78549,2.2919 3.12871,5.09506 5.80684,7.02806c6.52015,4.70605 14.57537,8.16095 20.52947,13.26447c1.43018,1.22588 2.51081,2.88554 3.97489,4.03849c1.004,0.79065 2.74396,0.31707 3.83176,0.9375c1.52642,0.8706 3.10517,3.32119 4.63647,4.53661c1.11826,0.88758 3.12101,0.71783 4.36275,1.46287c3.3448,2.00688 6.59758,4.22825 10.19178,5.89807c4.2005,1.9515 9.20278,9.06412 14.44414,12.35361c3.04496,1.91103 8.05393,1.58105 10.98598,3.8714c0.94025,0.73447 3.71839,5.99357 3.75,6.5625c0.02917,0.52508 -3.37097,6.29751 -3.75,6.5625c-2.47978,1.73366 -6.47866,0.73705 -9.24513,1.57058c-14.16892,4.26906 -31.1147,5.54315 -45.8827,5.74137c-9.22914,0.12387 -18.57046,5.67124 -27.7846,5.67124c-13.60955,0 -27.52316,-0.08458 -41.20212,-0.04673c-1.79065,0.00496 -3.98908,1.34494 -5.99948,1.49987c-4.16426,0.32091 -8.20337,-2.33572 -12.20057,-1.87484c-6.4958,0.74897 -12.5995,2.57297 -19.2967,2.62477c-7.56633,0.05852 -15.13481,-0.16043 -22.69966,0c-2.56628,0.05442 -5.09082,1.26693 -7.63165,1.48832c-4.87151,0.42446 -9.77907,0.18294 -14.66479,0.38651c-0.99519,0.04147 -1.6692,0.57924 -2.62477,0.37497c-3.89291,-0.83219 -7.54673,-3.28317 -7.54673,-7.83067c0,-5.69581 12.39852,-17.07673 17.92516,-17.36003c0.07926,-0.00406 2.54698,-3.71616 2.8795,-4.09301c3.53583,-4.0072 6.03726,-6.98882 10.38562,-9.67233c8.97288,-5.53745 8.29408,-7.66264 14.53514,-13.45453c1.45957,-1.35452 3.64261,-2.35528 5.12221,-3.77799c2.19537,-2.11096 3.45,-5.12307 5.75184,-7.09607c2.12039,-1.81748 5.637,-2.50604 7.70106,-4.45139c1.90767,-1.79795 3.63876,-4.24742 5.48249,-5.92354c5.70254,-5.18412 12.17087,-9.30313 16.88131,-15.58372z" data-paper-data="{&quot;index&quot;:null}" fill="#080791" stroke="none" stroke-width="0.5" stroke-linecap="butt"/><path d="M82.61119,377.44341l21.02102,-114.11411l58.55856,3.003l-10.51051,111.11111z" fill="#621111" stroke="#000000" stroke-width="5" stroke-linecap="butt"/><path d="M366.39498,372.9389l-10.51051,-111.11111l58.55856,-3.003l21.02102,114.11411z" data-paper-data="{&quot;index&quot;:null}" fill="#621111" stroke="#000000" stroke-width="5" stroke-linecap="butt"/></g></g></svg>