<svg version="1.1" xmlns="http://www.w3.org/2000/svg" xmlns:xlink="http://www.w3.org/1999/xlink" width="47" height="10.99999" viewBox="0,0,47,10.99999"><g transform="translate(-214.83594,-44)"><g data-paper-data="{&quot;isPaintingLayer&quot;:true}" fill-rule="nonzero" stroke="none" stroke-width="0" stroke-linecap="butt" stroke-linejoin="miter" stroke-miterlimit="10" stroke-dasharray="" stroke-dashoffset="0" style="mix-blend-mode: normal"><path d="M224.83594,49.25001c0,2.89949 -2.23858,5.25 -5,5.25c-2.76142,0 -5,-2.35051 -5,-5.25c0,-2.89949 2.23858,-5.25 5,-5.25c2.76142,0 5,2.35051 5,5.25z" fill="#ffffff"/><path d="M221.83594,49.75c0,0.9665 -0.67157,1.75 -1.5,1.75c-0.82843,0 -1.5,-0.7835 -1.5,-1.75c0,-0.9665 0.67157,-1.75 1.5,-1.75c0.82843,0 1.5,0.7835 1.5,1.75z" fill="#000000"/><path d="M261.83594,49.75c0,2.8995 -2.23858,5.25 -5,5.25c-2.76143,0 -5,-2.3505 -5,-5.25c0,-2.8995 2.23857,-5.25 5,-5.25c2.76142,0 5,2.3505 5,5.25z" fill="#ffffff"/><path d="M258.83594,49.75c0,0.9665 -0.67158,1.75 -1.5,1.75c-0.82842,0 -1.5,-0.7835 -1.5,-1.75c0,-0.9665 0.67158,-1.75 1.5,-1.75c0.82842,0 1.5,0.7835 1.5,1.75z" fill="#000000"/></g></g></svg>