<svg version="1.1" xmlns="http://www.w3.org/2000/svg" xmlns:xlink="http://www.w3.org/1999/xlink" width="83.75587" height="29.77504" viewBox="0,0,83.75587,29.77504"><g transform="translate(-194.11299,-6.94654)"><g data-paper-data="{&quot;isPaintingLayer&quot;:true}" fill="#def03c" fill-rule="nonzero" stroke="none" stroke-width="0.5" stroke-linecap="butt" stroke-linejoin="miter" stroke-miterlimit="10" stroke-dasharray="" stroke-dashoffset="0" style="mix-blend-mode: normal"><path d="M250.83594,32c-1.66667,0 -4.83333,0 -6.5,0c-3.49959,0 -7.00051,0.02643 -10.5,0c-2.51236,-0.01897 -4.78712,0.33725 -6.92652,-1.42987c-0.91389,0.13605 -1.78021,0.35876 -2.55306,0.71213c-0.83013,0.37956 -1.35829,1.31825 -2.22986,1.58944c-4.01723,1.25 -10.77325,-1.97587 -13.5228,1.39606c0,0 -0.74088,0.74088 -1.74302,0.78374c-2.54439,1.98044 -7.6934,2.26872 -9.96487,0.49203c-3.33758,-2.61057 -3.85105,-10.11412 -0.56537,-13.03941c1.0901,-0.97053 2.89829,-0.60764 4.35224,-0.47996c0.50914,0.04471 1.02637,0.12243 1.53939,0.23256c0.35982,-0.42779 0.78002,-0.82936 1.11386,-1.25673c0.74438,-0.95294 1.27767,-2.24339 2.38197,-2.73607c0.82364,-0.36746 1.90137,-0.47148 3.04693,-0.36649c1.91332,-0.58868 3.83434,-0.89212 4.53288,-0.42555c0.2954,0.19731 0.51237,0.45639 0.67045,0.75831c0.46675,-0.10322 0.92843,-0.18118 1.37694,-0.2315c1.75668,-0.87566 3.64265,-1.50032 5.54992,-1.57453c0.45838,-0.5639 1.15758,-0.92418 1.94092,-0.92418c0.18573,0 0.36673,0.02025 0.54091,0.05867l2.44938,0.48988l-0.0197,0.09848l0.24177,-0.04338c0.51021,0.21251 1.02043,0.42501 1.53064,0.63752c0.8641,-0.03966 1.76117,0.05516 2.61868,-0.0005c4.57256,-0.29678 9.16776,-0.32564 13.76149,-0.30031c2.2932,-1.43873 3.52004,-3.70257 7.33352,-2.25005c1.03339,0.39361 1.84377,1.30394 2.59609,2.3097c0.73633,0 1.9472,0 1.9472,0c0.93866,0 1.75649,0.51731 2.18395,1.28238c0.54957,0.09989 1.0707,0.27541 1.54779,0.54212c0.54925,0.30705 0.91852,0.81506 1.24005,1.37638c0.06347,-0.0143 0.10715,-0.02549 0.12671,-0.03269c1.28255,-0.47191 2.0668,-1.84484 2.78896,-3.00507c1.97524,-3.17343 3.71808,-6.26718 6.34476,-8.93089c0,0 1.76777,-1.76777 3.53553,0c1.76777,1.76777 0,3.53553 0,3.53553c-0.39658,0.38962 -0.76595,0.80542 -1.11484,1.24076c0.54315,0.04813 2.34708,0.36784 2.34708,2.49147c0,0.41425 -0.06864,0.75986 -0.18317,1.0482c0.55819,-0.18257 1.26172,-0.16712 2.06993,0.37168c2.08013,1.38675 0.69338,3.46688 0.69338,3.46688l-1.58013,2.11325c-0.10736,0.07716 -0.21327,0.15215 -0.31785,0.22498l-0.18215,1.27502c-0.66301,0.86799 -1.24058,1.73458 -1.92781,2.48851c0.28906,0.23998 0.55077,0.58743 0.749,1.08301c0.92848,2.32119 -1.39272,3.24967 -1.39272,3.24967l-2.56858,1.02627c-4.80945,1.55743 -9.22946,1.61566 -14.05886,0.05284c-1.0178,-0.25936 -2.05033,-0.46131 -3.09389,-0.61722c-0.66014,1.21692 -2.20714,1.21692 -2.20714,1.21692z"/></g></g></svg>