<svg version="1.1" xmlns="http://www.w3.org/2000/svg" xmlns:xlink="http://www.w3.org/1999/xlink" width="37.57331" height="17.36325" viewBox="0,0,37.57331,17.36325"><g transform="translate(-221.70821,-75.95639)"><g data-paper-data="{&quot;isPaintingLayer&quot;:true}" fill="#000000" fill-rule="nonzero" stroke="none" stroke-width="0.5" stroke-linecap="butt" stroke-linejoin="miter" stroke-miterlimit="10" stroke-dasharray="" stroke-dashoffset="0" style="mix-blend-mode: normal"><path d="M257.88398,76.76393c2.23607,1.11803 1.11803,3.3541 1.11803,3.3541l-0.27008,0.29296c-0.4827,2.75757 -0.5234,4.95997 -2.59179,7.24351c-1.6639,1.83697 -4.31997,2.51743 -6.68791,3.24945c-4.24769,1.31313 -9.36559,3.31642 -13.97685,1.96775c-1.79832,-0.52596 -3.32226,-1.73727 -4.93424,-2.6923c-4.08605,-2.4208 -4.22139,-6.96208 -7.83693,-9.72724c0,0 -1.95217,-1.56174 -0.39043,-3.51391c1.56174,-1.95217 3.51391,-0.39043 3.51391,-0.39043c0.96081,0.79349 2.10328,1.408 2.88243,2.38048c1.39021,1.73515 1.67162,4.1687 2.97521,5.96983c0.71414,0.98671 3.04145,1.48883 3.80543,1.92246c0.59139,0.33567 0.91669,1.10493 1.56576,1.3077c3.36623,1.05165 8.02472,-1.11443 11.02315,-2.03225c2.05054,-0.62767 2.68015,0.08498 4.31209,-1.75055c1.11516,-1.25428 1.17342,-3.25125 1.40821,-4.75649l0.72992,-1.70704c0,0 1.11803,-2.23607 3.3541,-1.11803z"/></g></g></svg>