<svg version="1.1" xmlns="http://www.w3.org/2000/svg" xmlns:xlink="http://www.w3.org/1999/xlink" width="612.2874" height="445.84524" viewBox="0,0,612.2874,445.84524"><g transform="translate(66.63572,36.17497)"><g data-paper-data="{&quot;isPaintingLayer&quot;:true}" fill-rule="nonzero" stroke-linejoin="miter" stroke-miterlimit="10" stroke-dasharray="" stroke-dashoffset="0" style="mix-blend-mode: normal"><path d="M-66.38572,409.42028v-445.34524h611.7874v445.34524z" fill="#2482ff" stroke="#000000" stroke-width="0.5" stroke-linecap="butt"/><path d="M48.32442,117.02189l125.95623,2.99896l2.99896,-28.4901l-19.49322,-10.49635l-17.99375,-20.9927l-26.99062,7.49739l-22.49218,8.99688l-32.98854,-49.4828l-19.49323,16.49427l-1.49948,20.99271l4.49844,20.99271z" fill="#f3f8ff" stroke="#fefefe" stroke-width="25" stroke-linecap="round"/><path d="M364.71448,63.04065l-35.98749,32.98854l-37.48698,-29.98957l2.99896,79.47238l65.97707,5.99791l32.98854,11.99583l37.48698,-4.49844l13.49531,-46.48384l-20.9927,-20.9927l-10.49635,-16.49427l-14.99479,-14.99479l-22.49219,2.99896l-10.49635,8.99688z" fill="none" stroke="#fefefe" stroke-width="25" stroke-linecap="round"/><path d="M292.73948,144.01251l53.98124,7.49739l58.47968,13.49531l38.98645,-56.9802l-56.9802,-46.48385l-59.97916,38.98645l-38.98645,-34.48801z" fill="#f3f8ff" stroke="#fefefe" stroke-width="25" stroke-linecap="round"/></g></g></svg>