<svg version="1.1" xmlns="http://www.w3.org/2000/svg" xmlns:xlink="http://www.w3.org/1999/xlink" width="70.38142" height="32.35609" viewBox="0,0,70.38142,32.35609"><g transform="translate(-205.43391,-164.32515)"><g data-paper-data="{&quot;isPaintingLayer&quot;:true}" fill-rule="nonzero" stroke-linecap="butt" stroke-linejoin="miter" stroke-miterlimit="10" stroke-dasharray="" stroke-dashoffset="0" style="mix-blend-mode: normal"><path d="M243.92354,180.65812c-0.08337,-8.24454 6.70843,-14.9974 15.16994,-15.08297c8.46149,-0.08557 15.38848,6.5286 15.47185,14.77312c0.08337,8.24452 -6.70844,14.9974 -15.16995,15.08297c-8.46149,0.08557 -15.38847,-6.5286 -15.47184,-14.77312z" fill="#1a1a1a" stroke="#17a100" stroke-width="2.5"/><path d="M214.19082,183.70884c-0.17111,0.81963 -1.60564,1.11116 -1.58556,1.94822c0.00055,0.02287 0.0029,0.04424 0.00693,0.06421c0.57893,-0.01105 0.99297,0.08802 0.99297,0.08802l0.4044,0.16077c0.08535,0.00251 0.1652,0.00958 0.23612,0.02415c0,0 0.05436,0.04357 0.14206,0.1262l0.9677,0.38471c9.24362,-1.41042 18.67445,-1.01123 28.00626,-1.10559c0,0 3.6454,-0.03686 3.68227,3.60854c0.03686,3.6454 -3.60854,3.68227 -3.60854,3.68227c-8.97522,0.09076 -18.08711,-0.34556 -26.97593,1.0219l-4.5511,-0.81196c0,0 -0.8763,-0.20968 -1.65333,-0.8562c-0.35615,-0.1897 -0.56914,-0.36042 -0.56914,-0.36042c-1.38966,-1.43956 -3.60989,-2.39752 -4.16897,-4.3187c-0.47633,-1.63683 1.24083,-3.20617 1.48833,-4.89284c0.57325,-3.9067 -0.33819,-7.25776 0.75197,-11.35523l1.00804,-2.2106c0,0 1.41055,-2.89389 4.30005,-1.91722c0.90612,-2.63477 3.88708,-2.23962 3.88708,-2.23962l1.06037,0.22382c2.17073,-0.17581 5.9754,-0.58354 8.09604,-0.31782c2.24401,0.28119 4.4727,1.25368 6.71575,0.96484c4.95731,-0.63839 7.51198,-1.50131 12.58324,-0.28634c0,0 3.53182,0.90367 2.62815,4.43548c-0.90367,3.53181 -4.43548,2.62815 -4.43548,2.62815c-4.25253,-1.18852 -5.62896,0.02368 -9.93449,0.46518c-5.15864,0.52899 -9.81159,-1.05419 -15.06019,-0.62245l-2.59999,-0.26174c-0.26312,0.74205 -0.75997,1.37439 -1.40285,1.80744c-0.75706,3.50546 0.31606,6.43504 -0.41211,9.92285z" fill="#17a100" stroke="none" stroke-width="0.5"/><path d="M238.65937,186.61177c-4.68196,0.04735 -9.52949,-0.13398 -14.16515,0.62935c-0.60792,0.10011 -6.43001,1.63359 -6.79339,1.64022c-2.11694,0.03863 -4.801,0.79332 -6.31456,-0.68721c-1.40476,-1.37413 -0.30629,-3.91881 -0.4008,-5.88162c-0.23568,-4.89539 -0.55814,-9.71049 4.69908,-12.48916c1.51108,-0.79869 3.40784,-0.31078 5.11692,-0.32982c4.41156,-0.04916 8.94637,0.30664 13.37205,0.38862c1.76259,0.03265 3.89517,-0.89477 5.28526,0.1894c0.3014,0.23508 0.55611,0.50739 0.77584,0.8076c0.46195,-0.32565 1.08544,-0.54783 1.92694,-0.55633c3.28086,-0.03317 3.31405,3.24768 3.31405,3.24768l-0.48717,2.55229c-1.98858,2.7428 -1.05012,4.08636 -0.49768,7.43564c0,0 0.53167,3.23768 -2.70601,3.76934c-1.31651,0.2162 -2.18559,-0.19084 -2.75346,-0.75002c-0.22769,0.03255 -0.37194,0.03401 -0.37194,0.03401z" fill="#1ec700" stroke="none" stroke-width="0.5"/></g></g></svg>