<svg version="1.1" xmlns="http://www.w3.org/2000/svg" xmlns:xlink="http://www.w3.org/1999/xlink" width="87.70126" height="36.91365" viewBox="0,0,87.70126,36.91365"><g transform="translate(-190.1676,-6.94654)"><g data-paper-data="{&quot;isPaintingLayer&quot;:true}" fill="#481212" fill-rule="nonzero" stroke="none" stroke-width="0.5" stroke-linecap="butt" stroke-linejoin="miter" stroke-miterlimit="10" stroke-dasharray="" stroke-dashoffset="0" style="mix-blend-mode: normal"><path d="M201.83478,37.70312c-0.28716,0.49631 -0.58958,0.97178 -0.84679,1.40109c-0.36574,0.61047 -0.97588,1.11016 -1.71503,1.52377c-0.26972,0.46896 -0.59112,0.89186 -1.02118,1.21791c-1.25909,0.95459 -2.92936,2.03108 -4.47617,1.93918c-0.43766,0.12083 -0.97123,0.11157 -1.61041,-0.1441c-2.32119,-0.92848 -1.39272,-3.24967 -1.39272,-3.24967l0.0537,-0.1298c-0.27591,-1.20827 -0.35847,-2.51198 -0.30785,-3.52227c-0.61616,-2.49495 -0.41232,-7.11028 0.54723,-8.06144c0.04301,-0.04263 0.08762,-0.07542 0.13368,-0.09943c-0.12724,-1.18594 -0.12397,-2.32443 0.55667,-3.21662c1.04812,-1.37388 2.3117,-1.78275 3.54267,-1.60439c0.28894,-0.47409 0.63231,-0.89751 1.03185,-1.25323c1.0901,-0.97053 2.89829,-0.60764 4.35224,-0.47996c0.50914,0.04471 1.02637,0.12243 1.53939,0.23256c0.35982,-0.42779 0.78002,-0.82936 1.11386,-1.25673c0.74438,-0.95294 1.27767,-2.24339 2.38197,-2.73607c0.82364,-0.36746 1.90137,-0.47148 3.04693,-0.36649c1.91332,-0.58868 3.83434,-0.89212 4.53288,-0.42555c0.2954,0.19731 0.51237,0.45639 0.67045,0.75831c0.46675,-0.10322 0.92843,-0.18118 1.37694,-0.2315c1.75668,-0.87566 3.64265,-1.50032 5.54992,-1.57453c0.45838,-0.5639 1.15758,-0.92418 1.94092,-0.92418c0.18573,0 0.36673,0.02025 0.54091,0.05867l2.44938,0.48988l-0.0197,0.09848l0.24177,-0.04338c0.51021,0.21251 1.02043,0.42501 1.53064,0.63752c0.8641,-0.03966 1.76117,0.05516 2.61868,-0.0005c4.57256,-0.29678 9.16776,-0.32564 13.76149,-0.30031c2.2932,-1.43873 3.52004,-3.70257 7.33352,-2.25005c1.03339,0.39361 1.84377,1.30394 2.59609,2.3097c0.73633,0 1.9472,0 1.9472,0c0.93866,0 1.75649,0.51731 2.18395,1.28238c0.54957,0.09989 1.0707,0.27541 1.54779,0.54212c0.54925,0.30705 0.91852,0.81506 1.24005,1.37638c0.06347,-0.0143 0.10715,-0.02549 0.12671,-0.03269c1.28255,-0.47191 2.0668,-1.84484 2.78896,-3.00507c1.97524,-3.17343 3.71808,-6.26718 6.34476,-8.93089c0,0 1.76777,-1.76777 3.53553,0c1.76777,1.76777 0,3.53553 0,3.53553c-0.39658,0.38962 -0.76595,0.80542 -1.11484,1.24076c0.54315,0.04813 2.34708,0.36784 2.34708,2.49147c0,0.41425 -0.06864,0.75986 -0.18317,1.0482c0.55819,-0.18257 1.26172,-0.16712 2.06993,0.37168c2.08013,1.38675 0.69338,3.46688 0.69338,3.46688l-1.58013,2.11325c-0.10736,0.07716 -0.21327,0.15215 -0.31785,0.22498l-0.18215,1.27502c-0.66301,0.86799 -1.24058,1.73458 -1.92781,2.48851c0.28906,0.23998 0.55077,0.58743 0.749,1.08301c0.92848,2.32119 -1.39272,3.24967 -1.39272,3.24967l-2.56858,1.02627c-4.80945,1.55743 -9.22946,1.61566 -14.05886,0.05284c-1.0178,-0.25936 -2.05033,-0.46131 -3.09389,-0.61722c-0.66014,1.21692 -2.20714,1.21692 -2.20714,1.21692l0.00002,0.00001c-1.66667,0 -4.83333,0 -6.5,0c-3.49959,0 -7.00051,0.02643 -10.5,0c-2.51236,-0.01897 -4.78712,0.33725 -6.92652,-1.42987c-0.91389,0.13605 -1.78021,0.35876 -2.55306,0.71213c-0.83013,0.37956 -1.35829,1.31825 -2.22986,1.58944c-4.01723,1.25 -10.77325,-1.97587 -13.5228,1.39606c0,0 -0.74088,0.74088 -1.74302,0.78374c-0.41889,0.32604 -0.90837,0.60622 -1.44398,0.83887c-0.47305,2.21464 -2.78639,1.88416 -2.78639,1.88416c-0.18613,-0.02701 -0.45879,-0.04999 -0.79554,-0.07142z"/></g></g></svg>